<?xml version="1.0" encoding="utf-8" standalone="no"?>
<!DOCTYPE svg PUBLIC "-//W3C//DTD SVG 1.1//EN"
  "http://www.w3.org/Graphics/SVG/1.1/DTD/svg11.dtd">
<svg xmlns:xlink="http://www.w3.org/1999/xlink" width="689.110937pt" height="354.48pt" viewBox="0 48 689.110937 354.48" xmlns="http://www.w3.org/2000/svg" version="1.1">
 <metadata>
  <rdf:RDF xmlns:dc="http://purl.org/dc/elements/1.1/" xmlns:cc="http://creativecommons.org/ns#" xmlns:rdf="http://www.w3.org/1999/02/22-rdf-syntax-ns#">
   <cc:Work>
    <dc:type rdf:resource="http://purl.org/dc/dcmitype/StillImage"/>
    <dc:date>2026-03-19T14:20:13.096049</dc:date>
    <dc:format>image/svg+xml</dc:format>
    <dc:creator>
     <cc:Agent>
      <dc:title>Matplotlib v3.10.8, https://matplotlib.org/</dc:title>
     </cc:Agent>
    </dc:creator>
   </cc:Work>
  </rdf:RDF>
 </metadata>
 <defs>
  <style type="text/css">*{stroke-linejoin: round; stroke-linecap: butt}</style>
 </defs>
 <g id="figure_1">
  <g id="patch_1">
   <path d="M 0 402.48 
L 689.110937 402.48 
L 689.110937 -0 
L 0 -0 
z
" style="fill: #ffffff"/>
  </g>
  <g id="axes_1">
   <g id="patch_2">
    <path d="M 74.16 154.1853 
C 77.563617 154.1853 80.828288 153.009696 83.235008 150.917402 
C 85.641729 148.825108 86.994 145.986951 86.994 143.028 
C 86.994 140.069049 85.641729 137.230892 83.235008 135.138598 
C 80.828288 133.046304 77.563617 131.8707 74.16 131.8707 
C 70.756383 131.8707 67.491712 133.046304 65.084992 135.138598 
C 62.678271 137.230892 61.326 140.069049 61.326 143.028 
C 61.326 145.986951 62.678271 148.825108 65.084992 150.917402 
C 67.491712 153.009696 70.756383 154.1853 74.16 154.1853 
z
" clip-path="url(#p99c9d677af)" style="fill: #ffffff; stroke: #000000; stroke-width: 1.8; stroke-linejoin: miter"/>
   </g>
   <g id="patch_3">
    <path d="M 146.7 154.1853 
C 150.103617 154.1853 153.368288 153.009696 155.775008 150.917402 
C 158.181729 148.825108 159.534 145.986951 159.534 143.028 
C 159.534 140.069049 158.181729 137.230892 155.775008 135.138598 
C 153.368288 133.046304 150.103617 131.8707 146.7 131.8707 
C 143.296383 131.8707 140.031712 133.046304 137.624992 135.138598 
C 135.218271 137.230892 133.866 140.069049 133.866 143.028 
C 133.866 145.986951 135.218271 148.825108 137.624992 150.917402 
C 140.031712 153.009696 143.296383 154.1853 146.7 154.1853 
z
" clip-path="url(#p99c9d677af)" style="fill: #d9d9d9; stroke: #000000; stroke-width: 1.8; stroke-linejoin: miter"/>
   </g>
   <g id="patch_4">
    <path d="M 219.24 151.7598 
C 221.9037 151.7598 224.45866 150.839762 226.342181 149.202315 
C 228.225701 147.564868 229.284 145.3437 229.284 143.028 
C 229.284 140.7123 228.225701 138.491132 226.342181 136.853685 
C 224.45866 135.216238 221.9037 134.2962 219.24 134.2962 
C 216.5763 134.2962 214.02134 135.216238 212.137819 136.853685 
C 210.254299 138.491132 209.196 140.7123 209.196 143.028 
C 209.196 145.3437 210.254299 147.564868 212.137819 149.202315 
C 214.02134 150.839762 216.5763 151.7598 219.24 151.7598 
z
" clip-path="url(#p99c9d677af)" style="fill: #d9d9d9; stroke: #000000; stroke-width: 1.8; stroke-linejoin: miter"/>
   </g>
   <g id="patch_5">
    <path d="M 291.78 154.1853 
C 295.183617 154.1853 298.448288 153.009696 300.855008 150.917402 
C 303.261729 148.825108 304.614 145.986951 304.614 143.028 
C 304.614 140.069049 303.261729 137.230892 300.855008 135.138598 
C 298.448288 133.046304 295.183617 131.8707 291.78 131.8707 
C 288.376383 131.8707 285.111712 133.046304 282.704992 135.138598 
C 280.298271 137.230892 278.946 140.069049 278.946 143.028 
C 278.946 145.986951 280.298271 148.825108 282.704992 150.917402 
C 285.111712 153.009696 288.376383 154.1853 291.78 154.1853 
z
" clip-path="url(#p99c9d677af)" style="fill: #ffffff; stroke: #000000; stroke-width: 1.8; stroke-linejoin: miter"/>
   </g>
   <g id="patch_6">
    <path d="M 84.1617 143.028 
Q 110.432443 143.028 134.914331 143.028 
" clip-path="url(#p99c9d677af)" style="fill: none; stroke: #000000; stroke-width: 1.6; stroke-linecap: round"/>
    <path d="M 130.114331 140.628 
L 134.914331 143.028 
L 130.114331 145.428 
z
" clip-path="url(#p99c9d677af)" style="stroke: #000000; stroke-width: 1.6; stroke-linecap: round"/>
   </g>
   <g id="patch_7">
    <path d="M 156.7017 143.028 
Q 182.972443 143.028 207.454331 143.028 
" clip-path="url(#p99c9d677af)" style="fill: none; stroke: #000000; stroke-width: 1.6; stroke-linecap: round"/>
    <path d="M 202.654331 140.628 
L 207.454331 143.028 
L 202.654331 145.428 
z
" clip-path="url(#p99c9d677af)" style="stroke: #000000; stroke-width: 1.6; stroke-linecap: round"/>
   </g>
   <g id="patch_8">
    <path d="M 229.2417 143.028 
Q 255.512443 143.028 279.994331 143.028 
" clip-path="url(#p99c9d677af)" style="fill: none; stroke: #000000; stroke-width: 1.6; stroke-linecap: round"/>
    <path d="M 275.194331 140.628 
L 279.994331 143.028 
L 275.194331 145.428 
z
" clip-path="url(#p99c9d677af)" style="stroke: #000000; stroke-width: 1.6; stroke-linecap: round"/>
   </g>
   <g id="patch_9">
    <path d="M 129.96 236.6523 
C 132.6237 236.6523 135.17866 235.732262 137.062181 234.094815 
C 138.945701 232.457368 140.004 230.2362 140.004 227.9205 
C 140.004 225.6048 138.945701 223.383632 137.062181 221.746185 
C 135.17866 220.108738 132.6237 219.1887 129.96 219.1887 
C 127.2963 219.1887 124.74134 220.108738 122.857819 221.746185 
C 120.974299 223.383632 119.916 225.6048 119.916 227.9205 
C 119.916 230.2362 120.974299 232.457368 122.857819 234.094815 
C 124.74134 235.732262 127.2963 236.6523 129.96 236.6523 
z
" clip-path="url(#p99c9d677af)" style="fill: #ffffff; stroke: #000000; stroke-width: 1.8; stroke-linejoin: miter"/>
   </g>
   <g id="patch_10">
    <path d="M 219.24 236.6523 
C 221.9037 236.6523 224.45866 235.732262 226.342181 234.094815 
C 228.225701 232.457368 229.284 230.2362 229.284 227.9205 
C 229.284 225.6048 228.225701 223.383632 226.342181 221.746185 
C 224.45866 220.108738 221.9037 219.1887 219.24 219.1887 
C 216.5763 219.1887 214.02134 220.108738 212.137819 221.746185 
C 210.254299 223.383632 209.196 225.6048 209.196 227.9205 
C 209.196 230.2362 210.254299 232.457368 212.137819 234.094815 
C 214.02134 235.732262 216.5763 236.6523 219.24 236.6523 
z
" clip-path="url(#p99c9d677af)" style="fill: #ffffff; stroke: #000000; stroke-width: 1.8; stroke-linejoin: miter"/>
   </g>
   <g id="patch_11">
    <path d="M 139.962041 227.9205 
Q 174.60018 227.9205 207.449465 227.9205 
" clip-path="url(#p99c9d677af)" style="fill: none; stroke: #000000; stroke-width: 1.6; stroke-linecap: round"/>
    <path d="M 202.649465 225.5205 
L 207.449465 227.9205 
L 202.649465 230.3205 
z
" clip-path="url(#p99c9d677af)" style="stroke: #000000; stroke-width: 1.6; stroke-linecap: round"/>
   </g>
   <g id="patch_12">
    <path d="M 509.4 137.2068 
C 512.803617 137.2068 516.068288 136.031196 518.475008 133.938902 
C 520.881729 131.846608 522.234 129.008451 522.234 126.0495 
C 522.234 123.090549 520.881729 120.252392 518.475008 118.160098 
C 516.068288 116.067804 512.803617 114.8922 509.4 114.8922 
C 505.996383 114.8922 502.731712 116.067804 500.324992 118.160098 
C 497.918271 120.252392 496.566 123.090549 496.566 126.0495 
C 496.566 129.008451 497.918271 131.846608 500.324992 133.938902 
C 502.731712 136.031196 505.996383 137.2068 509.4 137.2068 
z
" clip-path="url(#p99c9d677af)" style="fill: #d9d9d9; stroke: #000000; stroke-width: 1.8; stroke-linejoin: miter"/>
   </g>
   <g id="patch_13">
    <path d="M 453.6 185.7168 
C 457.003617 185.7168 460.268288 184.541196 462.675008 182.448902 
C 465.081729 180.356608 466.434 177.518451 466.434 174.5595 
C 466.434 171.600549 465.081729 168.762392 462.675008 166.670098 
C 460.268288 164.577804 457.003617 163.4022 453.6 163.4022 
C 450.196383 163.4022 446.931712 164.577804 444.524992 166.670098 
C 442.118271 168.762392 440.766 171.600549 440.766 174.5595 
C 440.766 177.518451 442.118271 180.356608 444.524992 182.448902 
C 446.931712 184.541196 450.196383 185.7168 453.6 185.7168 
z
" clip-path="url(#p99c9d677af)" style="fill: #d9d9d9; stroke: #000000; stroke-width: 1.8; stroke-linejoin: miter"/>
   </g>
   <g id="patch_14">
    <path d="M 565.2 185.7168 
C 568.603617 185.7168 571.868288 184.541196 574.275008 182.448902 
C 576.681729 180.356608 578.034 177.518451 578.034 174.5595 
C 578.034 171.600549 576.681729 168.762392 574.275008 166.670098 
C 571.868288 164.577804 568.603617 163.4022 565.2 163.4022 
C 561.796383 163.4022 558.531712 164.577804 556.124992 166.670098 
C 553.718271 168.762392 552.366 171.600549 552.366 174.5595 
C 552.366 177.518451 553.718271 180.356608 556.124992 182.448902 
C 558.531712 184.541196 561.796383 185.7168 565.2 185.7168 
z
" clip-path="url(#p99c9d677af)" style="fill: #d9d9d9; stroke: #000000; stroke-width: 1.8; stroke-linejoin: miter"/>
   </g>
   <g id="patch_15">
    <path d="M 403.38 231.8013 
C 406.783617 231.8013 410.048288 230.625696 412.455008 228.533402 
C 414.861729 226.441108 416.214 223.602951 416.214 220.644 
C 416.214 217.685049 414.861729 214.846892 412.455008 212.754598 
C 410.048288 210.662304 406.783617 209.4867 403.38 209.4867 
C 399.976383 209.4867 396.711712 210.662304 394.304992 212.754598 
C 391.898271 214.846892 390.546 217.685049 390.546 220.644 
C 390.546 223.602951 391.898271 226.441108 394.304992 228.533402 
C 396.711712 230.625696 399.976383 231.8013 403.38 231.8013 
z
" clip-path="url(#p99c9d677af)" style="fill: #ffffff; stroke: #000000; stroke-width: 1.8; stroke-linejoin: miter"/>
   </g>
   <g id="patch_16">
    <path d="M 615.42 231.8013 
C 618.823617 231.8013 622.088288 230.625696 624.495008 228.533402 
C 626.901729 226.441108 628.254 223.602951 628.254 220.644 
C 628.254 217.685049 626.901729 214.846892 624.495008 212.754598 
C 622.088288 210.662304 618.823617 209.4867 615.42 209.4867 
C 612.016383 209.4867 608.751712 210.662304 606.344992 212.754598 
C 603.938271 214.846892 602.586 217.685049 602.586 220.644 
C 602.586 223.602951 603.938271 226.441108 606.344992 228.533402 
C 608.751712 230.625696 612.016383 231.8013 615.42 231.8013 
z
" clip-path="url(#p99c9d677af)" style="fill: #ffffff; stroke: #000000; stroke-width: 1.8; stroke-linejoin: miter"/>
   </g>
   <g id="patch_17">
    <path d="M 501.856238 132.607706 
Q 481.502555 150.302278 462.498893 166.823204 
" clip-path="url(#p99c9d677af)" style="fill: none; stroke: #000000; stroke-width: 1.6; stroke-linecap: round"/>
    <path d="M 467.695989 165.485222 
L 462.498893 166.823204 
L 464.546765 161.862738 
z
" clip-path="url(#p99c9d677af)" style="stroke: #000000; stroke-width: 1.6; stroke-linecap: round"/>
   </g>
   <g id="patch_18">
    <path d="M 446.234359 181.318598 
Q 428.491284 197.600572 412.066223 212.673067 
" clip-path="url(#p99c9d677af)" style="fill: none; stroke: #000000; stroke-width: 1.6; stroke-linecap: round"/>
    <path d="M 417.225512 211.195997 
L 412.066223 212.673067 
L 413.98014 207.659394 
z
" clip-path="url(#p99c9d677af)" style="stroke: #000000; stroke-width: 1.6; stroke-linecap: round"/>
   </g>
   <g id="patch_19">
    <path d="M 516.943762 132.607706 
Q 537.297445 150.302278 556.301107 166.823204 
" clip-path="url(#p99c9d677af)" style="fill: none; stroke: #000000; stroke-width: 1.6; stroke-linecap: round"/>
    <path d="M 554.253235 161.862738 
L 556.301107 166.823204 
L 551.104011 165.485222 
z
" clip-path="url(#p99c9d677af)" style="stroke: #000000; stroke-width: 1.6; stroke-linecap: round"/>
   </g>
   <g id="patch_20">
    <path d="M 572.565641 181.318598 
Q 590.308716 197.600572 606.733777 212.673067 
" clip-path="url(#p99c9d677af)" style="fill: none; stroke: #000000; stroke-width: 1.6; stroke-linecap: round"/>
    <path d="M 604.81986 207.659394 
L 606.733777 212.673067 
L 601.574488 211.195997 
z
" clip-path="url(#p99c9d677af)" style="stroke: #000000; stroke-width: 1.6; stroke-linecap: round"/>
   </g>
   <g id="patch_21">
    <path d="M 464.76 309.4173 
C 467.4237 309.4173 469.97866 308.497262 471.862181 306.859815 
C 473.745701 305.222368 474.804 303.0012 474.804 300.6855 
C 474.804 298.3698 473.745701 296.148632 471.862181 294.511185 
C 469.97866 292.873738 467.4237 291.9537 464.76 291.9537 
C 462.0963 291.9537 459.54134 292.873738 457.657819 294.511185 
C 455.774299 296.148632 454.716 298.3698 454.716 300.6855 
C 454.716 303.0012 455.774299 305.222368 457.657819 306.859815 
C 459.54134 308.497262 462.0963 309.4173 464.76 309.4173 
z
" clip-path="url(#p99c9d677af)" style="fill: #d9d9d9; stroke: #000000; stroke-width: 1.8; stroke-linejoin: miter"/>
   </g>
   <g id="patch_22">
    <path d="M 414.54 348.2253 
C 417.2037 348.2253 419.75866 347.305262 421.642181 345.667815 
C 423.525701 344.030368 424.584 341.8092 424.584 339.4935 
C 424.584 337.1778 423.525701 334.956632 421.642181 333.319185 
C 419.75866 331.681738 417.2037 330.7617 414.54 330.7617 
C 411.8763 330.7617 409.32134 331.681738 407.437819 333.319185 
C 405.554299 334.956632 404.496 337.1778 404.496 339.4935 
C 404.496 341.8092 405.554299 344.030368 407.437819 345.667815 
C 409.32134 347.305262 411.8763 348.2253 414.54 348.2253 
z
" clip-path="url(#p99c9d677af)" style="fill: #ffffff; stroke: #000000; stroke-width: 1.8; stroke-linejoin: miter"/>
   </g>
   <g id="patch_23">
    <path d="M 514.98 348.2253 
C 517.6437 348.2253 520.19866 347.305262 522.082181 345.667815 
C 523.965701 344.030368 525.024 341.8092 525.024 339.4935 
C 525.024 337.1778 523.965701 334.956632 522.082181 333.319185 
C 520.19866 331.681738 517.6437 330.7617 514.98 330.7617 
C 512.3163 330.7617 509.76134 331.681738 507.877819 333.319185 
C 505.994299 334.956632 504.936 337.1778 504.936 339.4935 
C 504.936 341.8092 505.994299 344.030368 507.877819 345.667815 
C 509.76134 347.305262 512.3163 348.2253 514.98 348.2253 
z
" clip-path="url(#p99c9d677af)" style="fill: #ffffff; stroke: #000000; stroke-width: 1.8; stroke-linejoin: miter"/>
   </g>
   <g id="patch_24">
    <path d="M 456.848756 306.798992 
Q 439.651786 320.08812 423.870287 332.283429 
" clip-path="url(#p99c9d677af)" style="fill: none; stroke: #000000; stroke-width: 1.6; stroke-linecap: round"/>
    <path d="M 429.135908 331.247457 
L 423.870287 332.283429 
L 426.200882 327.449349 
z
" clip-path="url(#p99c9d677af)" style="stroke: #000000; stroke-width: 1.6; stroke-linecap: round"/>
   </g>
   <g id="patch_25">
    <path d="M 472.671244 306.798992 
Q 489.868214 320.08812 505.649713 332.283429 
" clip-path="url(#p99c9d677af)" style="fill: none; stroke: #000000; stroke-width: 1.6; stroke-linecap: round"/>
    <path d="M 503.319118 327.449349 
L 505.649713 332.283429 
L 500.384092 331.247457 
z
" clip-path="url(#p99c9d677af)" style="stroke: #000000; stroke-width: 1.6; stroke-linecap: round"/>
   </g>
   <g id="patch_26">
    <path d="M 51.84 364.7187 
C 53.6158 364.7187 55.319107 364.105342 56.574787 363.01371 
C 57.830467 361.922078 58.536 360.4413 58.536 358.8975 
C 58.536 357.3537 57.830467 355.872922 56.574787 354.78129 
C 55.319107 353.689658 53.6158 353.0763 51.84 353.0763 
C 50.0642 353.0763 48.360893 353.689658 47.105213 354.78129 
C 45.849533 355.872922 45.144 357.3537 45.144 358.8975 
C 45.144 360.4413 45.849533 361.922078 47.105213 363.01371 
C 48.360893 364.105342 50.0642 364.7187 51.84 364.7187 
z
" clip-path="url(#p99c9d677af)" style="fill: #ffffff; stroke: #000000; stroke-width: 1.8; stroke-linejoin: miter"/>
   </g>
   <g id="patch_27">
    <path d="M 155.07 364.7187 
C 156.8458 364.7187 158.549107 364.105342 159.804787 363.01371 
C 161.060467 361.922078 161.766 360.4413 161.766 358.8975 
C 161.766 357.3537 161.060467 355.872922 159.804787 354.78129 
C 158.549107 353.689658 156.8458 353.0763 155.07 353.0763 
C 153.2942 353.0763 151.590893 353.689658 150.335213 354.78129 
C 149.079533 355.872922 148.374 357.3537 148.374 358.8975 
C 148.374 360.4413 149.079533 361.922078 150.335213 363.01371 
C 151.590893 364.105342 153.2942 364.7187 155.07 364.7187 
z
" clip-path="url(#p99c9d677af)" style="fill: #d9d9d9; stroke: #000000; stroke-width: 1.8; stroke-linejoin: miter"/>
   </g>
   <g id="text_1">
    <!-- Latent transmission histories used by EpiLink -->
    <g transform="translate(110.158594 29.075062) scale(0.18 -0.18)">
     <defs>
      <path id="DejaVuSans-Bold-4c" d="M 588 4666
L 1791 4666
L 1791 909
L 3903 909
L 3903 0
L 588 0
L 588 4666
z
" transform="scale(0.015625)"/>
      <path id="DejaVuSans-Bold-61" d="M 2106 1575
Q 1756 1575 1579 1456
Q 1403 1338 1403 1106
Q 1403 894 1545 773
Q 1688 653 1941 653
Q 2256 653 2472 879
Q 2688 1106 2688 1447
L 2688 1575
L 2106 1575
z
M 3816 1997
L 3816 0
L 2688 0
L 2688 519
Q 2463 200 2181 54
Q 1900 -91 1497 -91
Q 953 -91 614 226
Q 275 544 275 1050
Q 275 1666 698 1953
Q 1122 2241 2028 2241
L 2688 2241
L 2688 2328
Q 2688 2594 2478 2717
Q 2269 2841 1825 2841
Q 1466 2841 1156 2769
Q 847 2697 581 2553
L 581 3406
Q 941 3494 1303 3539
Q 1666 3584 2028 3584
Q 2975 3584 3395 3211
Q 3816 2838 3816 1997
z
" transform="scale(0.015625)"/>
      <path id="DejaVuSans-Bold-74" d="M 1759 4494
L 1759 3500
L 2913 3500
L 2913 2700
L 1759 2700
L 1759 1216
Q 1759 972 1856 886
Q 1953 800 2241 800
L 2816 800
L 2816 0
L 1856 0
Q 1194 0 917 276
Q 641 553 641 1216
L 641 2700
L 84 2700
L 84 3500
L 641 3500
L 641 4494
L 1759 4494
z
" transform="scale(0.015625)"/>
      <path id="DejaVuSans-Bold-65" d="M 4031 1759
L 4031 1441
L 1416 1441
Q 1456 1047 1700 850
Q 1944 653 2381 653
Q 2734 653 3104 758
Q 3475 863 3866 1075
L 3866 213
Q 3469 63 3072 -14
Q 2675 -91 2278 -91
Q 1328 -91 801 392
Q 275 875 275 1747
Q 275 2603 792 3093
Q 1309 3584 2216 3584
Q 3041 3584 3536 3087
Q 4031 2591 4031 1759
z
M 2881 2131
Q 2881 2450 2695 2645
Q 2509 2841 2209 2841
Q 1884 2841 1681 2658
Q 1478 2475 1428 2131
L 2881 2131
z
" transform="scale(0.015625)"/>
      <path id="DejaVuSans-Bold-6e" d="M 4056 2131
L 4056 0
L 2931 0
L 2931 347
L 2931 1631
Q 2931 2084 2911 2256
Q 2891 2428 2841 2509
Q 2775 2619 2662 2680
Q 2550 2741 2406 2741
Q 2056 2741 1856 2470
Q 1656 2200 1656 1722
L 1656 0
L 538 0
L 538 3500
L 1656 3500
L 1656 2988
Q 1909 3294 2193 3439
Q 2478 3584 2822 3584
Q 3428 3584 3742 3212
Q 4056 2841 4056 2131
z
" transform="scale(0.015625)"/>
      <path id="DejaVuSans-Bold-20" transform="scale(0.015625)"/>
      <path id="DejaVuSans-Bold-72" d="M 3138 2547
Q 2991 2616 2845 2648
Q 2700 2681 2553 2681
Q 2122 2681 1889 2404
Q 1656 2128 1656 1613
L 1656 0
L 538 0
L 538 3500
L 1656 3500
L 1656 2925
Q 1872 3269 2151 3426
Q 2431 3584 2822 3584
Q 2878 3584 2943 3579
Q 3009 3575 3134 3559
L 3138 2547
z
" transform="scale(0.015625)"/>
      <path id="DejaVuSans-Bold-73" d="M 3272 3391
L 3272 2541
Q 2913 2691 2578 2766
Q 2244 2841 1947 2841
Q 1628 2841 1473 2761
Q 1319 2681 1319 2516
Q 1319 2381 1436 2309
Q 1553 2238 1856 2203
L 2053 2175
Q 2913 2066 3209 1816
Q 3506 1566 3506 1031
Q 3506 472 3093 190
Q 2681 -91 1863 -91
Q 1516 -91 1145 -36
Q 775 19 384 128
L 384 978
Q 719 816 1070 734
Q 1422 653 1784 653
Q 2113 653 2278 743
Q 2444 834 2444 1013
Q 2444 1163 2330 1236
Q 2216 1309 1875 1350
L 1678 1375
Q 931 1469 631 1722
Q 331 1975 331 2491
Q 331 3047 712 3315
Q 1094 3584 1881 3584
Q 2191 3584 2531 3537
Q 2872 3491 3272 3391
z
" transform="scale(0.015625)"/>
      <path id="DejaVuSans-Bold-6d" d="M 3781 2919
Q 3994 3244 4286 3414
Q 4578 3584 4928 3584
Q 5531 3584 5847 3212
Q 6163 2841 6163 2131
L 6163 0
L 5038 0
L 5038 1825
Q 5041 1866 5042 1909
Q 5044 1953 5044 2034
Q 5044 2406 4934 2573
Q 4825 2741 4581 2741
Q 4263 2741 4089 2478
Q 3916 2216 3909 1719
L 3909 0
L 2784 0
L 2784 1825
Q 2784 2406 2684 2573
Q 2584 2741 2328 2741
Q 2006 2741 1831 2477
Q 1656 2213 1656 1722
L 1656 0
L 531 0
L 531 3500
L 1656 3500
L 1656 2988
Q 1863 3284 2130 3434
Q 2397 3584 2719 3584
Q 3081 3584 3359 3409
Q 3638 3234 3781 2919
z
" transform="scale(0.015625)"/>
      <path id="DejaVuSans-Bold-69" d="M 538 3500
L 1656 3500
L 1656 0
L 538 0
L 538 3500
z
M 538 4863
L 1656 4863
L 1656 3950
L 538 3950
L 538 4863
z
" transform="scale(0.015625)"/>
      <path id="DejaVuSans-Bold-6f" d="M 2203 2784
Q 1831 2784 1636 2517
Q 1441 2250 1441 1747
Q 1441 1244 1636 976
Q 1831 709 2203 709
Q 2569 709 2762 976
Q 2956 1244 2956 1747
Q 2956 2250 2762 2517
Q 2569 2784 2203 2784
z
M 2203 3584
Q 3106 3584 3614 3096
Q 4122 2609 4122 1747
Q 4122 884 3614 396
Q 3106 -91 2203 -91
Q 1297 -91 786 396
Q 275 884 275 1747
Q 275 2609 786 3096
Q 1297 3584 2203 3584
z
" transform="scale(0.015625)"/>
      <path id="DejaVuSans-Bold-68" d="M 4056 2131
L 4056 0
L 2931 0
L 2931 347
L 2931 1625
Q 2931 2084 2911 2256
Q 2891 2428 2841 2509
Q 2775 2619 2662 2680
Q 2550 2741 2406 2741
Q 2056 2741 1856 2470
Q 1656 2200 1656 1722
L 1656 0
L 538 0
L 538 4863
L 1656 4863
L 1656 2988
Q 1909 3294 2193 3439
Q 2478 3584 2822 3584
Q 3428 3584 3742 3212
Q 4056 2841 4056 2131
z
" transform="scale(0.015625)"/>
      <path id="DejaVuSans-Bold-75" d="M 500 1363
L 500 3500
L 1625 3500
L 1625 3150
Q 1625 2866 1622 2436
Q 1619 2006 1619 1863
Q 1619 1441 1641 1255
Q 1663 1069 1716 984
Q 1784 875 1895 815
Q 2006 756 2150 756
Q 2500 756 2700 1025
Q 2900 1294 2900 1772
L 2900 3500
L 4019 3500
L 4019 0
L 2900 0
L 2900 506
Q 2647 200 2364 54
Q 2081 -91 1741 -91
Q 1134 -91 817 281
Q 500 653 500 1363
z
" transform="scale(0.015625)"/>
      <path id="DejaVuSans-Bold-64" d="M 2919 2988
L 2919 4863
L 4044 4863
L 4044 0
L 2919 0
L 2919 506
Q 2688 197 2409 53
Q 2131 -91 1766 -91
Q 1119 -91 703 423
Q 288 938 288 1747
Q 288 2556 703 3070
Q 1119 3584 1766 3584
Q 2128 3584 2408 3439
Q 2688 3294 2919 2988
z
M 2181 722
Q 2541 722 2730 984
Q 2919 1247 2919 1747
Q 2919 2247 2730 2509
Q 2541 2772 2181 2772
Q 1825 2772 1636 2509
Q 1447 2247 1447 1747
Q 1447 1247 1636 984
Q 1825 722 2181 722
z
" transform="scale(0.015625)"/>
      <path id="DejaVuSans-Bold-62" d="M 2400 722
Q 2759 722 2948 984
Q 3138 1247 3138 1747
Q 3138 2247 2948 2509
Q 2759 2772 2400 2772
Q 2041 2772 1848 2508
Q 1656 2244 1656 1747
Q 1656 1250 1848 986
Q 2041 722 2400 722
z
M 1656 2988
Q 1888 3294 2169 3439
Q 2450 3584 2816 3584
Q 3463 3584 3878 3070
Q 4294 2556 4294 1747
Q 4294 938 3878 423
Q 3463 -91 2816 -91
Q 2450 -91 2169 54
Q 1888 200 1656 506
L 1656 0
L 538 0
L 538 4863
L 1656 4863
L 1656 2988
z
" transform="scale(0.015625)"/>
      <path id="DejaVuSans-Bold-79" d="M 78 3500
L 1197 3500
L 2138 1125
L 2938 3500
L 4056 3500
L 2584 -331
Q 2363 -916 2067 -1148
Q 1772 -1381 1288 -1381
L 641 -1381
L 641 -647
L 991 -647
Q 1275 -647 1404 -556
Q 1534 -466 1606 -231
L 1638 -134
L 78 3500
z
" transform="scale(0.015625)"/>
      <path id="DejaVuSans-Bold-45" d="M 588 4666
L 3834 4666
L 3834 3756
L 1791 3756
L 1791 2888
L 3713 2888
L 3713 1978
L 1791 1978
L 1791 909
L 3903 909
L 3903 0
L 588 0
L 588 4666
z
" transform="scale(0.015625)"/>
      <path id="DejaVuSans-Bold-70" d="M 1656 506
L 1656 -1331
L 538 -1331
L 538 3500
L 1656 3500
L 1656 2988
Q 1888 3294 2169 3439
Q 2450 3584 2816 3584
Q 3463 3584 3878 3070
Q 4294 2556 4294 1747
Q 4294 938 3878 423
Q 3463 -91 2816 -91
Q 2450 -91 2169 54
Q 1888 200 1656 506
z
M 2400 2772
Q 2041 2772 1848 2508
Q 1656 2244 1656 1747
Q 1656 1250 1848 986
Q 2041 722 2400 722
Q 2759 722 2948 984
Q 3138 1247 3138 1747
Q 3138 2247 2948 2509
Q 2759 2772 2400 2772
z
" transform="scale(0.015625)"/>
      <path id="DejaVuSans-Bold-6b" d="M 538 4863
L 1656 4863
L 1656 2216
L 2944 3500
L 4244 3500
L 2534 1894
L 4378 0
L 3022 0
L 1656 1459
L 1656 0
L 538 0
L 538 4863
z
" transform="scale(0.015625)"/>
     </defs>
     <use xlink:href="#DejaVuSans-Bold-4c"/>
     <use xlink:href="#DejaVuSans-Bold-61" transform="translate(63.720703 0)"/>
     <use xlink:href="#DejaVuSans-Bold-74" transform="translate(131.201172 0)"/>
     <use xlink:href="#DejaVuSans-Bold-65" transform="translate(179.003906 0)"/>
     <use xlink:href="#DejaVuSans-Bold-6e" transform="translate(246.826172 0)"/>
     <use xlink:href="#DejaVuSans-Bold-74" transform="translate(318.017578 0)"/>
     <use xlink:href="#DejaVuSans-Bold-20" transform="translate(365.820312 0)"/>
     <use xlink:href="#DejaVuSans-Bold-74" transform="translate(400.634766 0)"/>
     <use xlink:href="#DejaVuSans-Bold-72" transform="translate(448.4375 0)"/>
     <use xlink:href="#DejaVuSans-Bold-61" transform="translate(497.753906 0)"/>
     <use xlink:href="#DejaVuSans-Bold-6e" transform="translate(565.234375 0)"/>
     <use xlink:href="#DejaVuSans-Bold-73" transform="translate(636.425781 0)"/>
     <use xlink:href="#DejaVuSans-Bold-6d" transform="translate(695.947266 0)"/>
     <use xlink:href="#DejaVuSans-Bold-69" transform="translate(800.146484 0)"/>
     <use xlink:href="#DejaVuSans-Bold-73" transform="translate(834.423828 0)"/>
     <use xlink:href="#DejaVuSans-Bold-73" transform="translate(893.945312 0)"/>
     <use xlink:href="#DejaVuSans-Bold-69" transform="translate(953.466797 0)"/>
     <use xlink:href="#DejaVuSans-Bold-6f" transform="translate(987.744141 0)"/>
     <use xlink:href="#DejaVuSans-Bold-6e" transform="translate(1056.445312 0)"/>
     <use xlink:href="#DejaVuSans-Bold-20" transform="translate(1127.636719 0)"/>
     <use xlink:href="#DejaVuSans-Bold-68" transform="translate(1162.451172 0)"/>
     <use xlink:href="#DejaVuSans-Bold-69" transform="translate(1233.642578 0)"/>
     <use xlink:href="#DejaVuSans-Bold-73" transform="translate(1267.919922 0)"/>
     <use xlink:href="#DejaVuSans-Bold-74" transform="translate(1327.441406 0)"/>
     <use xlink:href="#DejaVuSans-Bold-6f" transform="translate(1375.244141 0)"/>
     <use xlink:href="#DejaVuSans-Bold-72" transform="translate(1443.945312 0)"/>
     <use xlink:href="#DejaVuSans-Bold-69" transform="translate(1493.261719 0)"/>
     <use xlink:href="#DejaVuSans-Bold-65" transform="translate(1527.539062 0)"/>
     <use xlink:href="#DejaVuSans-Bold-73" transform="translate(1595.361328 0)"/>
     <use xlink:href="#DejaVuSans-Bold-20" transform="translate(1654.882812 0)"/>
     <use xlink:href="#DejaVuSans-Bold-75" transform="translate(1689.697266 0)"/>
     <use xlink:href="#DejaVuSans-Bold-73" transform="translate(1760.888672 0)"/>
     <use xlink:href="#DejaVuSans-Bold-65" transform="translate(1820.410156 0)"/>
     <use xlink:href="#DejaVuSans-Bold-64" transform="translate(1888.232422 0)"/>
     <use xlink:href="#DejaVuSans-Bold-20" transform="translate(1959.814453 0)"/>
     <use xlink:href="#DejaVuSans-Bold-62" transform="translate(1994.628906 0)"/>
     <use xlink:href="#DejaVuSans-Bold-79" transform="translate(2066.210938 0)"/>
     <use xlink:href="#DejaVuSans-Bold-20" transform="translate(2131.396484 0)"/>
     <use xlink:href="#DejaVuSans-Bold-45" transform="translate(2166.210938 0)"/>
     <use xlink:href="#DejaVuSans-Bold-70" transform="translate(2234.521484 0)"/>
     <use xlink:href="#DejaVuSans-Bold-69" transform="translate(2306.103516 0)"/>
     <use xlink:href="#DejaVuSans-Bold-4c" transform="translate(2340.380859 0)"/>
     <use xlink:href="#DejaVuSans-Bold-69" transform="translate(2404.101562 0)"/>
     <use xlink:href="#DejaVuSans-Bold-6e" transform="translate(2438.378906 0)"/>
     <use xlink:href="#DejaVuSans-Bold-6b" transform="translate(2509.570312 0)"/>
    </g>
   </g>
   <g id="text_2">
    <!-- Ancestor descendant: $H_{\mathrm{AD}}(m)$ -->
    <g transform="translate(57.7 65.412) scale(0.14 -0.14)">
     <defs>
      <path id="DejaVuSans-Bold-41" d="M 3419 850 
L 1538 850 
L 1241 0 
L 31 0 
L 1759 4666 
L 3194 4666 
L 4922 0 
L 3713 0 
L 3419 850 
z
M 1838 1716 
L 3116 1716 
L 2478 3572 
L 1838 1716 
z
" transform="scale(0.015625)"/>
      <path id="DejaVuSans-Bold-63" d="M 3366 3391 
L 3366 2478 
Q 3138 2634 2908 2709 
Q 2678 2784 2431 2784 
Q 1963 2784 1702 2511 
Q 1441 2238 1441 1747 
Q 1441 1256 1702 982 
Q 1963 709 2431 709 
Q 2694 709 2930 787 
Q 3166 866 3366 1019 
L 3366 103 
Q 3103 6 2833 -42 
Q 2563 -91 2291 -91 
Q 1344 -91 809 395 
Q 275 881 275 1747 
Q 275 2613 809 3098 
Q 1344 3584 2291 3584 
Q 2566 3584 2833 3536 
Q 3100 3488 3366 3391 
z
" transform="scale(0.015625)"/>
      <path id="DejaVuSans-Bold-2d" d="M 347 2297 
L 2309 2297 
L 2309 1388 
L 347 1388 
L 347 2297 
z
" transform="scale(0.015625)"/>
      <path id="DejaVuSans-Bold-3a" d="M 716 3500 
L 1844 3500 
L 1844 2291 
L 716 2291 
L 716 3500 
z
M 716 1209 
L 1844 1209 
L 1844 0 
L 716 0 
L 716 1209 
z
" transform="scale(0.015625)"/>
      <path id="DejaVuSans-Oblique-48" d="M 1081 4666 
L 1716 4666 
L 1344 2753 
L 3634 2753 
L 4006 4666 
L 4641 4666 
L 3731 0 
L 3097 0 
L 3531 2222 
L 1241 2222 
L 806 0 
L 172 0 
L 1081 4666 
z
" transform="scale(0.015625)"/>
      <path id="DejaVuSans-41" d="M 2188 4044 
L 1331 1722 
L 3047 1722 
L 2188 4044 
z
M 1831 4666 
L 2547 4666 
L 4325 0 
L 3669 0 
L 3244 1197 
L 1141 1197 
L 716 0 
L 50 0 
L 1831 4666 
z
" transform="scale(0.015625)"/>
      <path id="DejaVuSans-44" d="M 1259 4147 
L 1259 519 
L 2022 519 
Q 2988 519 3436 956 
Q 3884 1394 3884 2338 
Q 3884 3275 3436 3711 
Q 2988 4147 2022 4147 
L 1259 4147 
z
M 628 4666 
L 1925 4666 
Q 3281 4666 3915 4102 
Q 4550 3538 4550 2338 
Q 4550 1131 3912 565 
Q 3275 0 1925 0 
L 628 0 
L 628 4666 
z
" transform="scale(0.015625)"/>
      <path id="DejaVuSans-28" d="M 1984 4856 
Q 1566 4138 1362 3434 
Q 1159 2731 1159 2009 
Q 1159 1288 1364 580 
Q 1569 -128 1984 -844 
L 1484 -844 
Q 1016 -109 783 600 
Q 550 1309 550 2009 
Q 550 2706 781 3412 
Q 1013 4119 1484 4856 
L 1984 4856 
z
" transform="scale(0.015625)"/>
      <path id="DejaVuSans-Oblique-6d" d="M 5747 2113 
L 5338 0 
L 4763 0 
L 5166 2094 
Q 5191 2228 5203 2325 
Q 5216 2422 5216 2491 
Q 5216 2772 5059 2928 
Q 4903 3084 4622 3084 
Q 4203 3084 3875 2770 
Q 3547 2456 3450 1953 
L 3066 0 
L 2491 0 
L 2900 2094 
Q 2925 2209 2937 2307 
Q 2950 2406 2950 2484 
Q 2950 2769 2794 2926 
Q 2638 3084 2363 3084 
Q 1938 3084 1609 2770 
Q 1281 2456 1184 1953 
L 800 0 
L 225 0 
L 909 3500 
L 1484 3500 
L 1375 2956 
Q 1609 3263 1923 3423 
Q 2238 3584 2597 3584 
Q 2978 3584 3223 3384 
Q 3469 3184 3519 2828 
Q 3781 3197 4126 3390 
Q 4472 3584 4856 3584 
Q 5306 3584 5551 3325 
Q 5797 3066 5797 2591 
Q 5797 2488 5784 2364 
Q 5772 2241 5747 2113 
z
" transform="scale(0.015625)"/>
      <path id="DejaVuSans-29" d="M 513 4856 
L 1013 4856 
Q 1481 4119 1714 3412 
Q 1947 2706 1947 2009 
Q 1947 1309 1714 600 
Q 1481 -109 1013 -844 
L 513 -844 
Q 928 -128 1133 580
Q 1338 1288 1338 2009
Q 1338 2731 1133 3434 
Q 928 4138 513 4856 
z
" transform="scale(0.015625)"/>
     </defs>
     <use xlink:href="#DejaVuSans-Bold-41" transform="translate(0 0.015625)"/>
     <use xlink:href="#DejaVuSans-Bold-6e" transform="translate(77.392578 0.015625)"/>
     <use xlink:href="#DejaVuSans-Bold-63" transform="translate(148.583984 0.015625)"/>
     <use xlink:href="#DejaVuSans-Bold-65" transform="translate(207.861328 0.015625)"/>
     <use xlink:href="#DejaVuSans-Bold-73" transform="translate(275.683594 0.015625)"/>
     <use xlink:href="#DejaVuSans-Bold-74" transform="translate(335.205078 0.015625)"/>
     <use xlink:href="#DejaVuSans-Bold-6f" transform="translate(383.007812 0.015625)"/>
     <use xlink:href="#DejaVuSans-Bold-72" transform="translate(451.708984 0.015625)"/>
     <use xlink:href="#DejaVuSans-Bold-20" transform="translate(501.025391 0.015625)"/>
     <use xlink:href="#DejaVuSans-Bold-64" transform="translate(535.839845 0.015625)"/>
     <use xlink:href="#DejaVuSans-Bold-65" transform="translate(607.421876 0.015625)"/>
     <use xlink:href="#DejaVuSans-Bold-73" transform="translate(675.244142 0.015625)"/>
     <use xlink:href="#DejaVuSans-Bold-63" transform="translate(734.765626 0.015625)"/>
     <use xlink:href="#DejaVuSans-Bold-65" transform="translate(794.04297 0.015625)"/>
     <use xlink:href="#DejaVuSans-Bold-6e" transform="translate(861.865236 0.015625)"/>
     <use xlink:href="#DejaVuSans-Bold-64" transform="translate(933.056642 0.015625)"/>
     <use xlink:href="#DejaVuSans-Bold-61" transform="translate(1004.638673 0.015625)"/>
     <use xlink:href="#DejaVuSans-Bold-6e" transform="translate(1072.119142 0.015625)"/>
     <use xlink:href="#DejaVuSans-Bold-74" transform="translate(1143.310548 0.015625)"/>
     <use xlink:href="#DejaVuSans-Bold-3a" transform="translate(1191.113283 0.015625)"/>
     <use xlink:href="#DejaVuSans-Bold-20" transform="translate(1231.103517 0.015625)"/>
     <use xlink:href="#DejaVuSans-Oblique-48" transform="translate(1265.91797 0.015625)"/>
     <use xlink:href="#DejaVuSans-41" transform="translate(1341.113283 -16.390625) scale(0.7)"/>
     <use xlink:href="#DejaVuSans-44" transform="translate(1388.999025 -16.390625) scale(0.7)"/>
     <use xlink:href="#DejaVuSans-28" transform="translate(1445.634767 0.015625)"/>
     <use xlink:href="#DejaVuSans-Oblique-6d" transform="translate(1484.648439 0.015625)"/>
     <use xlink:href="#DejaVuSans-29" transform="translate(1582.060548 0.015625)"/>
    </g>
   </g>
   <g id="text_3">
    <!-- $j$ descends from $i$ through $m$ unsampled intermediates -->
    <g transform="translate(24.45 87.2415) scale(0.11 -0.11)">
     <defs>
      <path id="DejaVuSans-Oblique-6a" d="M 928 3500
L 1503 3500
L 813 -63
L 809 -78
Q 694 -675 544 -897
Q 403 -1106 132 -1218
Q -138 -1331 -506 -1331
L -722 -1331
L -628 -844
L -481 -844
Q -144 -844 -1 -703
Q 141 -563 238 -63
L 928 3500
z
M 1197 4863
L 1772 4863
L 1631 4134
L 1056 4134
L 1197 4863
z
" transform="scale(0.015625)"/>
      <path id="DejaVuSans-20" transform="scale(0.015625)"/>
      <path id="DejaVuSans-64" d="M 2906 2969
L 2906 4863
L 3481 4863
L 3481 0
L 2906 0
L 2906 525
Q 2725 213 2448 61
Q 2172 -91 1784 -91
Q 1150 -91 751 415
Q 353 922 353 1747
Q 353 2572 751 3078
Q 1150 3584 1784 3584
Q 2172 3584 2448 3432
Q 2725 3281 2906 2969
z
M 947 1747
Q 947 1113 1208 752
Q 1469 391 1925 391
Q 2381 391 2643 752
Q 2906 1113 2906 1747
Q 2906 2381 2643 2742
Q 2381 3103 1925 3103
Q 1469 3103 1208 2742
Q 947 2381 947 1747
z
" transform="scale(0.015625)"/>
      <path id="DejaVuSans-65" d="M 3597 1894
L 3597 1613
L 953 1613
Q 991 1019 1311 708
Q 1631 397 2203 397
Q 2534 397 2845 478
Q 3156 559 3463 722
L 3463 178
Q 3153 47 2828 -22
Q 2503 -91 2169 -91
Q 1331 -91 842 396
Q 353 884 353 1716
Q 353 2575 817 3079
Q 1281 3584 2069 3584
Q 2775 3584 3186 3129
Q 3597 2675 3597 1894
z
M 3022 2063
Q 3016 2534 2758 2815
Q 2500 3097 2075 3097
Q 1594 3097 1305 2825
Q 1016 2553 972 2059
L 3022 2063
z
" transform="scale(0.015625)"/>
      <path id="DejaVuSans-73" d="M 2834 3397
L 2834 2853
Q 2591 2978 2328 3040
Q 2066 3103 1784 3103
Q 1356 3103 1142 2972
Q 928 2841 928 2578
Q 928 2378 1081 2264
Q 1234 2150 1697 2047
L 1894 2003
Q 2506 1872 2764 1633
Q 3022 1394 3022 966
Q 3022 478 2636 193
Q 2250 -91 1575 -91
Q 1294 -91 989 -36
Q 684 19 347 128
L 347 722
Q 666 556 975 473
Q 1284 391 1588 391
Q 1994 391 2212 530
Q 2431 669 2431 922
Q 2431 1156 2273 1281
Q 2116 1406 1581 1522
L 1381 1569
Q 847 1681 609 1914
Q 372 2147 372 2553
Q 372 3047 722 3315
Q 1072 3584 1716 3584
Q 2034 3584 2315 3537
Q 2597 3491 2834 3397
z
" transform="scale(0.015625)"/>
      <path id="DejaVuSans-63" d="M 3122 3366
L 3122 2828
Q 2878 2963 2633 3030
Q 2388 3097 2138 3097
Q 1578 3097 1268 2742
Q 959 2388 959 1747
Q 959 1106 1268 751
Q 1578 397 2138 397
Q 2388 397 2633 464
Q 2878 531 3122 666
L 3122 134
Q 2881 22 2623 -34
Q 2366 -91 2075 -91
Q 1284 -91 818 406
Q 353 903 353 1747
Q 353 2603 823 3093
Q 1294 3584 2113 3584
Q 2378 3584 2631 3529
Q 2884 3475 3122 3366
z
" transform="scale(0.015625)"/>
      <path id="DejaVuSans-6e" d="M 3513 2113
L 3513 0
L 2938 0
L 2938 2094
Q 2938 2591 2744 2837
Q 2550 3084 2163 3084
Q 1697 3084 1428 2787
Q 1159 2491 1159 1978
L 1159 0
L 581 0
L 581 3500
L 1159 3500
L 1159 2956
Q 1366 3272 1645 3428
Q 1925 3584 2291 3584
Q 2894 3584 3203 3211
Q 3513 2838 3513 2113
z
" transform="scale(0.015625)"/>
      <path id="DejaVuSans-66" d="M 2375 4863
L 2375 4384
L 1825 4384
Q 1516 4384 1395 4259
Q 1275 4134 1275 3809
L 1275 3500
L 2222 3500
L 2222 3053
L 1275 3053
L 1275 0
L 697 0
L 697 3053
L 147 3053
L 147 3500
L 697 3500
L 697 3744
Q 697 4328 969 4595
Q 1241 4863 1831 4863
L 2375 4863
z
" transform="scale(0.015625)"/>
      <path id="DejaVuSans-72" d="M 2631 2963
Q 2534 3019 2420 3045
Q 2306 3072 2169 3072
Q 1681 3072 1420 2755
Q 1159 2438 1159 1844
L 1159 0
L 581 0
L 581 3500
L 1159 3500
L 1159 2956
Q 1341 3275 1631 3429
Q 1922 3584 2338 3584
Q 2397 3584 2469 3576
Q 2541 3569 2628 3553
L 2631 2963
z
" transform="scale(0.015625)"/>
      <path id="DejaVuSans-6f" d="M 1959 3097
Q 1497 3097 1228 2736
Q 959 2375 959 1747
Q 959 1119 1226 758
Q 1494 397 1959 397
Q 2419 397 2687 759
Q 2956 1122 2956 1747
Q 2956 2369 2687 2733
Q 2419 3097 1959 3097
z
M 1959 3584
Q 2709 3584 3137 3096
Q 3566 2609 3566 1747
Q 3566 888 3137 398
Q 2709 -91 1959 -91
Q 1206 -91 779 398
Q 353 888 353 1747
Q 353 2609 779 3096
Q 1206 3584 1959 3584
z
" transform="scale(0.015625)"/>
      <path id="DejaVuSans-6d" d="M 3328 2828
Q 3544 3216 3844 3400
Q 4144 3584 4550 3584
Q 5097 3584 5394 3201
Q 5691 2819 5691 2113
L 5691 0
L 5113 0
L 5113 2094
Q 5113 2597 4934 2840
Q 4756 3084 4391 3084
Q 3944 3084 3684 2787
Q 3425 2491 3425 1978
L 3425 0
L 2847 0
L 2847 2094
Q 2847 2600 2669 2842
Q 2491 3084 2119 3084
Q 1678 3084 1418 2786
Q 1159 2488 1159 1978
L 1159 0
L 581 0
L 581 3500
L 1159 3500
L 1159 2956
Q 1356 3278 1631 3431
Q 1906 3584 2284 3584
Q 2666 3584 2933 3390
Q 3200 3197 3328 2828
z
" transform="scale(0.015625)"/>
      <path id="DejaVuSans-Oblique-69" d="M 1172 4863
L 1747 4863
L 1606 4134
L 1031 4134
L 1172 4863
z
M 909 3500
L 1484 3500
L 800 0
L 225 0
L 909 3500
z
" transform="scale(0.015625)"/>
      <path id="DejaVuSans-74" d="M 1172 4494
L 1172 3500
L 2356 3500
L 2356 3053
L 1172 3053
L 1172 1153
Q 1172 725 1289 603
Q 1406 481 1766 481
L 2356 481
L 2356 0
L 1766 0
Q 1100 0 847 248
Q 594 497 594 1153
L 594 3053
L 172 3053
L 172 3500
L 594 3500
L 594 4494
L 1172 4494
z
" transform="scale(0.015625)"/>
      <path id="DejaVuSans-68" d="M 3513 2113
L 3513 0
L 2938 0
L 2938 2094
Q 2938 2591 2744 2837
Q 2550 3084 2163 3084
Q 1697 3084 1428 2787
Q 1159 2491 1159 1978
L 1159 0
L 581 0
L 581 4863
L 1159 4863
L 1159 2956
Q 1366 3272 1645 3428
Q 1925 3584 2291 3584
Q 2894 3584 3203 3211
Q 3513 2838 3513 2113
z
" transform="scale(0.015625)"/>
      <path id="DejaVuSans-75" d="M 544 1381
L 544 3500
L 1119 3500
L 1119 1403
Q 1119 906 1312 657
Q 1506 409 1894 409
Q 2359 409 2629 706
Q 2900 1003 2900 1516
L 2900 3500
L 3475 3500
L 3475 0
L 2900 0
L 2900 538
Q 2691 219 2414 64
Q 2138 -91 1772 -91
Q 1169 -91 856 284
Q 544 659 544 1381
z
M 1991 3584
L 1991 3584
z
" transform="scale(0.015625)"/>
      <path id="DejaVuSans-67" d="M 2906 1791
Q 2906 2416 2648 2759
Q 2391 3103 1925 3103
Q 1463 3103 1205 2759
Q 947 2416 947 1791
Q 947 1169 1205 825
Q 1463 481 1925 481
Q 2391 481 2648 825
Q 2906 1169 2906 1791
z
M 3481 434
Q 3481 -459 3084 -895
Q 2688 -1331 1869 -1331
Q 1566 -1331 1297 -1286
Q 1028 -1241 775 -1147
L 775 -588
Q 1028 -725 1275 -790
Q 1522 -856 1778 -856
Q 2344 -856 2625 -561
Q 2906 -266 2906 331
L 2906 616
Q 2728 306 2450 153
Q 2172 0 1784 0
Q 1141 0 747 490
Q 353 981 353 1791
Q 353 2603 747 3093
Q 1141 3584 1784 3584
Q 2172 3584 2450 3431
Q 2728 3278 2906 2969
L 2906 3500
L 3481 3500
L 3481 434
z
" transform="scale(0.015625)"/>
      <path id="DejaVuSans-61" d="M 2194 1759
Q 1497 1759 1228 1600
Q 959 1441 959 1056
Q 959 750 1161 570
Q 1363 391 1709 391
Q 2188 391 2477 730
Q 2766 1069 2766 1631
L 2766 1759
L 2194 1759
z
M 3341 1997
L 3341 0
L 2766 0
L 2766 531
Q 2569 213 2275 61
Q 1981 -91 1556 -91
Q 1019 -91 701 211
Q 384 513 384 1019
Q 384 1609 779 1909
Q 1175 2209 1959 2209
L 2766 2209
L 2766 2266
Q 2766 2663 2505 2880
Q 2244 3097 1772 3097
Q 1472 3097 1187 3025
Q 903 2953 641 2809
L 641 3341
Q 956 3463 1253 3523
Q 1550 3584 1831 3584
Q 2591 3584 2966 3190
Q 3341 2797 3341 1997
z
" transform="scale(0.015625)"/>
      <path id="DejaVuSans-70" d="M 1159 525
L 1159 -1331
L 581 -1331
L 581 3500
L 1159 3500
L 1159 2969
Q 1341 3281 1617 3432
Q 1894 3584 2278 3584
Q 2916 3584 3314 3078
Q 3713 2572 3713 1747
Q 3713 922 3314 415
Q 2916 -91 2278 -91
Q 1894 -91 1617 61
Q 1341 213 1159 525
z
M 3116 1747
Q 3116 2381 2855 2742
Q 2594 3103 2138 3103
Q 1681 3103 1420 2742
Q 1159 2381 1159 1747
Q 1159 1113 1420 752
Q 1681 391 2138 391
Q 2594 391 2855 752
Q 3116 1113 3116 1747
z
" transform="scale(0.015625)"/>
      <path id="DejaVuSans-6c" d="M 603 4863
L 1178 4863
L 1178 0
L 603 0
L 603 4863
z
" transform="scale(0.015625)"/>
      <path id="DejaVuSans-69" d="M 603 3500
L 1178 3500
L 1178 0
L 603 0
L 603 3500
z
M 603 4863
L 1178 4863
L 1178 4134
L 603 4134
L 603 4863
z
" transform="scale(0.015625)"/>
     </defs>
     <use xlink:href="#DejaVuSans-Oblique-6a" transform="translate(0 0.015625)"/>
     <use xlink:href="#DejaVuSans-20" transform="translate(27.783203 0.015625)"/>
     <use xlink:href="#DejaVuSans-64" transform="translate(59.570312 0.015625)"/>
     <use xlink:href="#DejaVuSans-65" transform="translate(123.046875 0.015625)"/>
     <use xlink:href="#DejaVuSans-73" transform="translate(184.570312 0.015625)"/>
     <use xlink:href="#DejaVuSans-63" transform="translate(236.669922 0.015625)"/>
     <use xlink:href="#DejaVuSans-65" transform="translate(291.650391 0.015625)"/>
     <use xlink:href="#DejaVuSans-6e" transform="translate(353.173828 0.015625)"/>
     <use xlink:href="#DejaVuSans-64" transform="translate(416.552734 0.015625)"/>
     <use xlink:href="#DejaVuSans-73" transform="translate(480.029297 0.015625)"/>
     <use xlink:href="#DejaVuSans-20" transform="translate(532.128906 0.015625)"/>
     <use xlink:href="#DejaVuSans-66" transform="translate(563.916016 0.015625)"/>
     <use xlink:href="#DejaVuSans-72" transform="translate(599.121094 0.015625)"/>
     <use xlink:href="#DejaVuSans-6f" transform="translate(640.234375 0.015625)"/>
     <use xlink:href="#DejaVuSans-6d" transform="translate(701.416016 0.015625)"/>
     <use xlink:href="#DejaVuSans-20" transform="translate(798.828125 0.015625)"/>
     <use xlink:href="#DejaVuSans-Oblique-69" transform="translate(830.615234 0.015625)"/>
     <use xlink:href="#DejaVuSans-20" transform="translate(858.398438 0.015625)"/>
     <use xlink:href="#DejaVuSans-74" transform="translate(890.185547 0.015625)"/>
     <use xlink:href="#DejaVuSans-68" transform="translate(929.394531 0.015625)"/>
     <use xlink:href="#DejaVuSans-72" transform="translate(992.773438 0.015625)"/>
     <use xlink:href="#DejaVuSans-6f" transform="translate(1033.886719 0.015625)"/>
     <use xlink:href="#DejaVuSans-75" transform="translate(1095.068359 0.015625)"/>
     <use xlink:href="#DejaVuSans-67" transform="translate(1158.447266 0.015625)"/>
     <use xlink:href="#DejaVuSans-68" transform="translate(1221.923828 0.015625)"/>
     <use xlink:href="#DejaVuSans-20" transform="translate(1285.302734 0.015625)"/>
     <use xlink:href="#DejaVuSans-Oblique-6d" transform="translate(1317.089844 0.015625)"/>
     <use xlink:href="#DejaVuSans-20" transform="translate(1414.501953 0.015625)"/>
     <use xlink:href="#DejaVuSans-75" transform="translate(1446.289062 0.015625)"/>
     <use xlink:href="#DejaVuSans-6e" transform="translate(1509.667969 0.015625)"/>
     <use xlink:href="#DejaVuSans-73" transform="translate(1573.046875 0.015625)"/>
     <use xlink:href="#DejaVuSans-61" transform="translate(1625.146484 0.015625)"/>
     <use xlink:href="#DejaVuSans-6d" transform="translate(1686.425781 0.015625)"/>
     <use xlink:href="#DejaVuSans-70" transform="translate(1783.837891 0.015625)"/>
     <use xlink:href="#DejaVuSans-6c" transform="translate(1847.314453 0.015625)"/>
     <use xlink:href="#DejaVuSans-65" transform="translate(1875.097656 0.015625)"/>
     <use xlink:href="#DejaVuSans-64" transform="translate(1936.621094 0.015625)"/>
     <use xlink:href="#DejaVuSans-20" transform="translate(2000.097656 0.015625)"/>
     <use xlink:href="#DejaVuSans-69" transform="translate(2031.884766 0.015625)"/>
     <use xlink:href="#DejaVuSans-6e" transform="translate(2059.667969 0.015625)"/>
     <use xlink:href="#DejaVuSans-74" transform="translate(2123.046875 0.015625)"/>
     <use xlink:href="#DejaVuSans-65" transform="translate(2162.255859 0.015625)"/>
     <use xlink:href="#DejaVuSans-72" transform="translate(2223.779297 0.015625)"/>
     <use xlink:href="#DejaVuSans-6d" transform="translate(2264.892578 0.015625)"/>
     <use xlink:href="#DejaVuSans-65" transform="translate(2362.304688 0.015625)"/>
     <use xlink:href="#DejaVuSans-64" transform="translate(2423.828125 0.015625)"/>
     <use xlink:href="#DejaVuSans-69" transform="translate(2487.304688 0.015625)"/>
     <use xlink:href="#DejaVuSans-61" transform="translate(2515.087891 0.015625)"/>
     <use xlink:href="#DejaVuSans-74" transform="translate(2576.367188 0.015625)"/>
     <use xlink:href="#DejaVuSans-65" transform="translate(2615.576172 0.015625)"/>
     <use xlink:href="#DejaVuSans-73" transform="translate(2677.099609 0.015625)"/>
    </g>
   </g>
   <g id="text_4">
    <!-- i -->
    <g transform="translate(72.493125 146.33925) scale(0.12 -0.12)">
     <use xlink:href="#DejaVuSans-69"/>
    </g>
   </g>
   <g id="text_5">
    <!-- u₁ -->
    <g transform="translate(140.491875 146.33925) scale(0.12 -0.12)">
     <defs>
      <path id="DejaVuSans-2081" d="M 488 319
L 1125 319
L 1125 2229
L 428 2101
L 428 2463
L 1147 2585
L 1575 2585
L 1575 319
L 2216 319
L 2216 -24
L 488 -24
L 488 319
z
" transform="scale(0.015625)"/>
     </defs>
     <use xlink:href="#DejaVuSans-75"/>
     <use xlink:href="#DejaVuSans-2081" transform="translate(63.378906 0)"/>
    </g>
   </g>
   <g id="text_6">
    <!-- ⋯ -->
    <g transform="translate(213.24 146.33925) scale(0.12 -0.12)">
     <defs>
      <path id="DejaVuSans-22ef" d="M 740 2363
L 1400 2363
L 1400 1569
L 740 1569
L 740 2363
z
M 2868 2363
L 3528 2363
L 3528 1569
L 2868 1569
L 2868 2363
z
M 4996 2363
L 5656 2363
L 5656 1569
L 4996 1569
L 4996 2363
z
" transform="scale(0.015625)"/>
     </defs>
     <use xlink:href="#DejaVuSans-22ef"/>
    </g>
   </g>
   <g id="text_7">
    <!-- j -->
    <g transform="translate(290.113125 146.33925) scale(0.12 -0.12)">
     <defs>
      <path id="DejaVuSans-6a" d="M 603 3500
L 1178 3500
L 1178 -63
Q 1178 -731 923 -1031
Q 669 -1331 103 -1331
L -116 -1331
L -116 -844
L 38 -844
Q 366 -844 484 -692
Q 603 -541 603 -63
L 603 3500
z
M 603 4863
L 1178 4863
L 1178 4134
L 603 4134
L 603 4863
z
" transform="scale(0.015625)"/>
     </defs>
     <use xlink:href="#DejaVuSans-6a"/>
    </g>
   </g>
   <g id="text_8">
    <!-- $\tau_{\mathrm{gen}}$ -->
    <g transform="translate(100.68 134.094862) scale(0.1 -0.1)">
     <defs>
      <path id="DejaVuSans-Oblique-3c4" d="M 2103 638
Q 2188 488 2525 488
L 2800 488
L 2706 0
L 2363 0
Q 1800 0 1600 300
Q 1403 606 1534 1269
L 1856 2925
L 541 2925
L 653 3500
L 3881 3500
L 3769 2925
L 2444 2925
L 2113 1234
Q 2025 781 2103 638
z
" transform="scale(0.015625)"/>
     </defs>
     <use xlink:href="#DejaVuSans-Oblique-3c4" transform="translate(0 0.3125)"/>
     <use xlink:href="#DejaVuSans-67" transform="translate(60.205078 -16.09375) scale(0.7)"/>
     <use xlink:href="#DejaVuSans-65" transform="translate(104.638672 -16.09375) scale(0.7)"/>
     <use xlink:href="#DejaVuSans-6e" transform="translate(147.705078 -16.09375) scale(0.7)"/>
    </g>
   </g>
   <g id="text_9">
    <!-- $\tau_{\mathrm{gen}}$ -->
    <g transform="translate(173.22 134.094862) scale(0.1 -0.1)">
     <use xlink:href="#DejaVuSans-Oblique-3c4" transform="translate(0 0.3125)"/>
     <use xlink:href="#DejaVuSans-67" transform="translate(60.205078 -16.09375) scale(0.7)"/>
     <use xlink:href="#DejaVuSans-65" transform="translate(104.638672 -16.09375) scale(0.7)"/>
     <use xlink:href="#DejaVuSans-6e" transform="translate(147.705078 -16.09375) scale(0.7)"/>
    </g>
   </g>
   <g id="text_10">
    <!-- $\tau_{\mathrm{gen}}$ -->
    <g transform="translate(245.76 134.094862) scale(0.1 -0.1)">
     <use xlink:href="#DejaVuSans-Oblique-3c4" transform="translate(0 0.3125)"/>
     <use xlink:href="#DejaVuSans-67" transform="translate(60.205078 -16.09375) scale(0.7)"/>
     <use xlink:href="#DejaVuSans-65" transform="translate(104.638672 -16.09375) scale(0.7)"/>
     <use xlink:href="#DejaVuSans-6e" transform="translate(147.705078 -16.09375) scale(0.7)"/>
    </g>
   </g>
   <g id="text_11">
    <!-- Special case: $m=0$ gives direct transmission ($i \rightarrow j$) -->
    <g transform="translate(34.57 184.2615) scale(0.11 -0.11)">
     <defs>
      <path id="DejaVuSans-53" d="M 3425 4513
L 3425 3897
Q 3066 4069 2747 4153
Q 2428 4238 2131 4238
Q 1616 4238 1336 4038
Q 1056 3838 1056 3469
Q 1056 3159 1242 3001
Q 1428 2844 1947 2747
L 2328 2669
Q 3034 2534 3370 2195
Q 3706 1856 3706 1288
Q 3706 609 3251 259
Q 2797 -91 1919 -91
Q 1588 -91 1214 -16
Q 841 59 441 206
L 441 856
Q 825 641 1194 531
Q 1563 422 1919 422
Q 2459 422 2753 634
Q 3047 847 3047 1241
Q 3047 1584 2836 1778
Q 2625 1972 2144 2069
L 1759 2144
Q 1053 2284 737 2584
Q 422 2884 422 3419
Q 422 4038 858 4394
Q 1294 4750 2059 4750
Q 2388 4750 2728 4690
Q 3069 4631 3425 4513
z
" transform="scale(0.015625)"/>
      <path id="DejaVuSans-3a" d="M 750 794
L 1409 794
L 1409 0
L 750 0
L 750 794
z
M 750 3309
L 1409 3309
L 1409 2516
L 750 2516
L 750 3309
z
" transform="scale(0.015625)"/>
      <path id="DejaVuSans-3d" d="M 678 2906
L 4684 2906
L 4684 2381
L 678 2381
L 678 2906
z
M 678 1631
L 4684 1631
L 4684 1100
L 678 1100
L 678 1631
z
" transform="scale(0.015625)"/>
      <path id="DejaVuSans-30" d="M 2034 4250
Q 1547 4250 1301 3770
Q 1056 3291 1056 2328
Q 1056 1369 1301 889
Q 1547 409 2034 409
Q 2525 409 2770 889
Q 3016 1369 3016 2328
Q 3016 3291 2770 3770
Q 2525 4250 2034 4250
z
M 2034 4750
Q 2819 4750 3233 4129
Q 3647 3509 3647 2328
Q 3647 1150 3233 529
Q 2819 -91 2034 -91
Q 1250 -91 836 529
Q 422 1150 422 2328
Q 422 3509 836 4129
Q 1250 4750 2034 4750
z
" transform="scale(0.015625)"/>
      <path id="DejaVuSans-76" d="M 191 3500
L 800 3500
L 1894 563
L 2988 3500
L 3597 3500
L 2284 0
L 1503 0
L 191 3500
z
" transform="scale(0.015625)"/>
      <path id="DejaVuSans-2192" d="M 5050 2147
L 5050 1866
L 3822 638
L 3447 1013
L 4175 1741
L 366 1741
L 366 2272
L 4175 2272
L 3447 3000
L 3822 3375
L 5050 2147
z
" transform="scale(0.015625)"/>
     </defs>
     <use xlink:href="#DejaVuSans-53" transform="translate(0 0.015625)"/>
     <use xlink:href="#DejaVuSans-70" transform="translate(63.476562 0.015625)"/>
     <use xlink:href="#DejaVuSans-65" transform="translate(126.953125 0.015625)"/>
     <use xlink:href="#DejaVuSans-63" transform="translate(188.476562 0.015625)"/>
     <use xlink:href="#DejaVuSans-69" transform="translate(243.457031 0.015625)"/>
     <use xlink:href="#DejaVuSans-61" transform="translate(271.240234 0.015625)"/>
     <use xlink:href="#DejaVuSans-6c" transform="translate(332.519531 0.015625)"/>
     <use xlink:href="#DejaVuSans-20" transform="translate(360.302734 0.015625)"/>
     <use xlink:href="#DejaVuSans-63" transform="translate(392.089844 0.015625)"/>
     <use xlink:href="#DejaVuSans-61" transform="translate(447.070312 0.015625)"/>
     <use xlink:href="#DejaVuSans-73" transform="translate(508.349609 0.015625)"/>
     <use xlink:href="#DejaVuSans-65" transform="translate(560.449219 0.015625)"/>
     <use xlink:href="#DejaVuSans-3a" transform="translate(621.972656 0.015625)"/>
     <use xlink:href="#DejaVuSans-20" transform="translate(655.664062 0.015625)"/>
     <use xlink:href="#DejaVuSans-Oblique-6d" transform="translate(687.451172 0.015625)"/>
     <use xlink:href="#DejaVuSans-3d" transform="translate(804.345703 0.015625)"/>
     <use xlink:href="#DejaVuSans-30" transform="translate(907.617188 0.015625)"/>
     <use xlink:href="#DejaVuSans-20" transform="translate(971.240234 0.015625)"/>
     <use xlink:href="#DejaVuSans-67" transform="translate(1003.027344 0.015625)"/>
     <use xlink:href="#DejaVuSans-69" transform="translate(1066.503906 0.015625)"/>
     <use xlink:href="#DejaVuSans-76" transform="translate(1094.287109 0.015625)"/>
     <use xlink:href="#DejaVuSans-65" transform="translate(1153.466797 0.015625)"/>
     <use xlink:href="#DejaVuSans-73" transform="translate(1214.990234 0.015625)"/>
     <use xlink:href="#DejaVuSans-20" transform="translate(1267.089844 0.015625)"/>
     <use xlink:href="#DejaVuSans-64" transform="translate(1298.876953 0.015625)"/>
     <use xlink:href="#DejaVuSans-69" transform="translate(1362.353516 0.015625)"/>
     <use xlink:href="#DejaVuSans-72" transform="translate(1390.136719 0.015625)"/>
     <use xlink:href="#DejaVuSans-65" transform="translate(1431.25 0.015625)"/>
     <use xlink:href="#DejaVuSans-63" transform="translate(1492.773438 0.015625)"/>
     <use xlink:href="#DejaVuSans-74" transform="translate(1547.753906 0.015625)"/>
     <use xlink:href="#DejaVuSans-20" transform="translate(1586.962891 0.015625)"/>
     <use xlink:href="#DejaVuSans-74" transform="translate(1618.75 0.015625)"/>
     <use xlink:href="#DejaVuSans-72" transform="translate(1657.958984 0.015625)"/>
     <use xlink:href="#DejaVuSans-61" transform="translate(1699.072266 0.015625)"/>
     <use xlink:href="#DejaVuSans-6e" transform="translate(1760.351562 0.015625)"/>
     <use xlink:href="#DejaVuSans-73" transform="translate(1823.730469 0.015625)"/>
     <use xlink:href="#DejaVuSans-6d" transform="translate(1875.830078 0.015625)"/>
     <use xlink:href="#DejaVuSans-69" transform="translate(1973.242188 0.015625)"/>
     <use xlink:href="#DejaVuSans-73" transform="translate(2001.025391 0.015625)"/>
     <use xlink:href="#DejaVuSans-73" transform="translate(2053.125 0.015625)"/>
     <use xlink:href="#DejaVuSans-69" transform="translate(2105.224609 0.015625)"/>
     <use xlink:href="#DejaVuSans-6f" transform="translate(2133.007812 0.015625)"/>
     <use xlink:href="#DejaVuSans-6e" transform="translate(2194.189453 0.015625)"/>
     <use xlink:href="#DejaVuSans-20" transform="translate(2257.568359 0.015625)"/>
     <use xlink:href="#DejaVuSans-28" transform="translate(2289.355469 0.015625)"/>
     <use xlink:href="#DejaVuSans-Oblique-69" transform="translate(2328.369141 0.015625)"/>
     <use xlink:href="#DejaVuSans-2192" transform="translate(2375.634766 0.015625)"/>
     <use xlink:href="#DejaVuSans-Oblique-6a" transform="translate(2478.90625 0.015625)"/>
     <use xlink:href="#DejaVuSans-29" transform="translate(2506.689453 0.015625)"/>
    </g>
   </g>
   <g id="text_12">
    <!-- i -->
    <g transform="translate(128.293125 231.23175) scale(0.12 -0.12)">
     <use xlink:href="#DejaVuSans-69"/>
    </g>
   </g>
   <g id="text_13">
    <!-- j -->
    <g transform="translate(217.573125 231.23175) scale(0.12 -0.12)">
     <use xlink:href="#DejaVuSans-6a"/>
    </g>
   </g>
   <g id="text_14">
    <!-- Common ancestor: $H_{\mathrm{CA}}(m_i,m_j)$ -->
    <g transform="translate(394.95 65.412) scale(0.14 -0.14)">
     <defs>
      <path id="DejaVuSans-Bold-43" d="M 4288 256
Q 3956 84 3597 -3
Q 3238 -91 2847 -91
Q 1681 -91 1000 561
Q 319 1213 319 2328
Q 319 3447 1000 4098
Q 1681 4750 2847 4750
Q 3238 4750 3597 4662
Q 3956 4575 4288 4403
L 4288 3438
Q 3953 3666 3628 3772
Q 3303 3878 2944 3878
Q 2300 3878 1931 3465
Q 1563 3053 1563 2328
Q 1563 1606 1931 1193
Q 2300 781 2944 781
Q 3303 781 3628 887
Q 3953 994 4288 1222
L 4288 256
z
" transform="scale(0.015625)"/>
      <path id="DejaVuSans-43" d="M 4122 4306
L 4122 3641
Q 3803 3938 3442 4084
Q 3081 4231 2675 4231
Q 1875 4231 1450 3742
Q 1025 3253 1025 2328
Q 1025 1406 1450 917
Q 1875 428 2675 428
Q 3081 428 3442 575
Q 3803 722 4122 1019
L 4122 359
Q 3791 134 3420 21
Q 3050 -91 2638 -91
Q 1578 -91 968 557
Q 359 1206 359 2328
Q 359 3453 968 4101
Q 1578 4750 2638 4750
Q 3056 4750 3426 4639
Q 3797 4528 4122 4306
z
" transform="scale(0.015625)"/>
      <path id="DejaVuSans-2c" d="M 750 794
L 1409 794
L 1409 256
L 897 -744
L 494 -744
L 750 256
L 750 794
z
" transform="scale(0.015625)"/>
     </defs>
     <use xlink:href="#DejaVuSans-Bold-43" transform="translate(0 0.125)"/>
     <use xlink:href="#DejaVuSans-Bold-6f" transform="translate(73.388672 0.125)"/>
     <use xlink:href="#DejaVuSans-Bold-6d" transform="translate(142.089844 0.125)"/>
     <use xlink:href="#DejaVuSans-Bold-6d" transform="translate(246.289062 0.125)"/>
     <use xlink:href="#DejaVuSans-Bold-6f" transform="translate(350.488281 0.125)"/>
     <use xlink:href="#DejaVuSans-Bold-6e" transform="translate(419.189453 0.125)"/>
     <use xlink:href="#DejaVuSans-Bold-20" transform="translate(490.380859 0.125)"/>
     <use xlink:href="#DejaVuSans-Bold-61" transform="translate(525.195312 0.125)"/>
     <use xlink:href="#DejaVuSans-Bold-6e" transform="translate(592.675781 0.125)"/>
     <use xlink:href="#DejaVuSans-Bold-63" transform="translate(663.867188 0.125)"/>
     <use xlink:href="#DejaVuSans-Bold-65" transform="translate(723.144531 0.125)"/>
     <use xlink:href="#DejaVuSans-Bold-73" transform="translate(790.966797 0.125)"/>
     <use xlink:href="#DejaVuSans-Bold-74" transform="translate(850.488281 0.125)"/>
     <use xlink:href="#DejaVuSans-Bold-6f" transform="translate(898.291016 0.125)"/>
     <use xlink:href="#DejaVuSans-Bold-72" transform="translate(966.992188 0.125)"/>
     <use xlink:href="#DejaVuSans-Bold-3a" transform="translate(1016.308594 0.125)"/>
     <use xlink:href="#DejaVuSans-Bold-20" transform="translate(1056.298828 0.125)"/>
     <use xlink:href="#DejaVuSans-Oblique-48" transform="translate(1091.113281 0.125)"/>
     <use xlink:href="#DejaVuSans-43" transform="translate(1166.308594 -16.28125) scale(0.7)"/>
     <use xlink:href="#DejaVuSans-41" transform="translate(1215.185547 -16.28125) scale(0.7)"/>
     <use xlink:href="#DejaVuSans-28" transform="translate(1265.805664 0.125)"/>
     <use xlink:href="#DejaVuSans-Oblique-6d" transform="translate(1304.819336 0.125)"/>
     <use xlink:href="#DejaVuSans-Oblique-69" transform="translate(1402.231445 -16.28125) scale(0.7)"/>
     <use xlink:href="#DejaVuSans-2c" transform="translate(1424.414062 0.125)"/>
     <use xlink:href="#DejaVuSans-Oblique-6d" transform="translate(1475.683594 0.125)"/>
     <use xlink:href="#DejaVuSans-Oblique-6a" transform="translate(1573.095703 -16.28125) scale(0.7)"/>
     <use xlink:href="#DejaVuSans-29" transform="translate(1595.27832 0.125)"/>
    </g>
   </g>
   <g id="text_15">
    <!-- Both sampled cases descend from a shared unsampled source -->
    <g transform="translate(336.889062 87.2415) scale(0.11 -0.11)">
     <defs>
      <path id="DejaVuSans-42" d="M 1259 2228
L 1259 519
L 2272 519
Q 2781 519 3026 730
Q 3272 941 3272 1375
Q 3272 1813 3026 2020
Q 2781 2228 2272 2228
L 1259 2228
z
M 1259 4147
L 1259 2741
L 2194 2741
Q 2656 2741 2882 2914
Q 3109 3088 3109 3444
Q 3109 3797 2882 3972
Q 2656 4147 2194 4147
L 1259 4147
z
M 628 4666
L 2241 4666
Q 2963 4666 3353 4366
Q 3744 4066 3744 3513
Q 3744 3084 3544 2831
Q 3344 2578 2956 2516
Q 3422 2416 3680 2098
Q 3938 1781 3938 1306
Q 3938 681 3513 340
Q 3088 0 2303 0
L 628 0
L 628 4666
z
" transform="scale(0.015625)"/>
     </defs>
     <use xlink:href="#DejaVuSans-42"/>
     <use xlink:href="#DejaVuSans-6f" transform="translate(68.603516 0)"/>
     <use xlink:href="#DejaVuSans-74" transform="translate(129.785156 0)"/>
     <use xlink:href="#DejaVuSans-68" transform="translate(168.994141 0)"/>
     <use xlink:href="#DejaVuSans-20" transform="translate(232.373047 0)"/>
     <use xlink:href="#DejaVuSans-73" transform="translate(264.160156 0)"/>
     <use xlink:href="#DejaVuSans-61" transform="translate(316.259766 0)"/>
     <use xlink:href="#DejaVuSans-6d" transform="translate(377.539062 0)"/>
     <use xlink:href="#DejaVuSans-70" transform="translate(474.951172 0)"/>
     <use xlink:href="#DejaVuSans-6c" transform="translate(538.427734 0)"/>
     <use xlink:href="#DejaVuSans-65" transform="translate(566.210938 0)"/>
     <use xlink:href="#DejaVuSans-64" transform="translate(627.734375 0)"/>
     <use xlink:href="#DejaVuSans-20" transform="translate(691.210938 0)"/>
     <use xlink:href="#DejaVuSans-63" transform="translate(722.998047 0)"/>
     <use xlink:href="#DejaVuSans-61" transform="translate(777.978516 0)"/>
     <use xlink:href="#DejaVuSans-73" transform="translate(839.257812 0)"/>
     <use xlink:href="#DejaVuSans-65" transform="translate(891.357422 0)"/>
     <use xlink:href="#DejaVuSans-73" transform="translate(952.880859 0)"/>
     <use xlink:href="#DejaVuSans-20" transform="translate(1004.980469 0)"/>
     <use xlink:href="#DejaVuSans-64" transform="translate(1036.767578 0)"/>
     <use xlink:href="#DejaVuSans-65" transform="translate(1100.244141 0)"/>
     <use xlink:href="#DejaVuSans-73" transform="translate(1161.767578 0)"/>
     <use xlink:href="#DejaVuSans-63" transform="translate(1213.867188 0)"/>
     <use xlink:href="#DejaVuSans-65" transform="translate(1268.847656 0)"/>
     <use xlink:href="#DejaVuSans-6e" transform="translate(1330.371094 0)"/>
     <use xlink:href="#DejaVuSans-64" transform="translate(1393.75 0)"/>
     <use xlink:href="#DejaVuSans-20" transform="translate(1457.226562 0)"/>
     <use xlink:href="#DejaVuSans-66" transform="translate(1489.013672 0)"/>
     <use xlink:href="#DejaVuSans-72" transform="translate(1524.21875 0)"/>
     <use xlink:href="#DejaVuSans-6f" transform="translate(1563.082031 0)"/>
     <use xlink:href="#DejaVuSans-6d" transform="translate(1624.263672 0)"/>
     <use xlink:href="#DejaVuSans-20" transform="translate(1721.675781 0)"/>
     <use xlink:href="#DejaVuSans-61" transform="translate(1753.462891 0)"/>
     <use xlink:href="#DejaVuSans-20" transform="translate(1814.742188 0)"/>
     <use xlink:href="#DejaVuSans-73" transform="translate(1846.529297 0)"/>
     <use xlink:href="#DejaVuSans-68" transform="translate(1898.628906 0)"/>
     <use xlink:href="#DejaVuSans-61" transform="translate(1962.007812 0)"/>
     <use xlink:href="#DejaVuSans-72" transform="translate(2023.287109 0)"/>
     <use xlink:href="#DejaVuSans-65" transform="translate(2062.150391 0)"/>
     <use xlink:href="#DejaVuSans-64" transform="translate(2123.673828 0)"/>
     <use xlink:href="#DejaVuSans-20" transform="translate(2187.150391 0)"/>
     <use xlink:href="#DejaVuSans-75" transform="translate(2218.9375 0)"/>
     <use xlink:href="#DejaVuSans-6e" transform="translate(2282.316406 0)"/>
     <use xlink:href="#DejaVuSans-73" transform="translate(2345.695312 0)"/>
     <use xlink:href="#DejaVuSans-61" transform="translate(2397.794922 0)"/>
     <use xlink:href="#DejaVuSans-6d" transform="translate(2459.074219 0)"/>
     <use xlink:href="#DejaVuSans-70" transform="translate(2556.486328 0)"/>
     <use xlink:href="#DejaVuSans-6c" transform="translate(2619.962891 0)"/>
     <use xlink:href="#DejaVuSans-65" transform="translate(2647.746094 0)"/>
     <use xlink:href="#DejaVuSans-64" transform="translate(2709.269531 0)"/>
     <use xlink:href="#DejaVuSans-20" transform="translate(2772.746094 0)"/>
     <use xlink:href="#DejaVuSans-73" transform="translate(2804.533203 0)"/>
     <use xlink:href="#DejaVuSans-6f" transform="translate(2856.632812 0)"/>
     <use xlink:href="#DejaVuSans-75" transform="translate(2917.814453 0)"/>
     <use xlink:href="#DejaVuSans-72" transform="translate(2981.193359 0)"/>
     <use xlink:href="#DejaVuSans-63" transform="translate(3020.056641 0)"/>
     <use xlink:href="#DejaVuSans-65" transform="translate(3075.037109 0)"/>
    </g>
   </g>
   <g id="text_16">
    <!-- a -->
    <g transform="translate(505.723125 129.36075) scale(0.12 -0.12)">
     <use xlink:href="#DejaVuSans-61"/>
    </g>
   </g>
   <g id="text_17">
    <!-- uᵢ -->
    <g transform="translate(448.725 177.87075) scale(0.12 -0.12)">
     <defs>
      <path id="DejaVuSans-1d62" d="M 381 1935
L 744 1935
L 744 -24
L 381 -24
L 381 1935
z
M 381 2697
L 744 2697
L 744 2291
L 381 2291
L 381 2697
z
" transform="scale(0.015625)"/>
     </defs>
     <use xlink:href="#DejaVuSans-75"/>
     <use xlink:href="#DejaVuSans-1d62" transform="translate(63.378906 0)"/>
    </g>
   </g>
   <g id="text_18">
    <!-- uⱼ -->
    <g transform="translate(560.348438 177.87075) scale(0.12 -0.12)">
     <defs>
      <path id="DejaVuSans-2c7c" d="M 381 1935
L 744 1935
L 744 -59
Q 744 -434 581 -603
Q 422 -771 66 -771
L -72 -771
L -72 -496
L 25 -496
Q 231 -496 306 -412
Q 381 -328 381 -59
L 381 1935
z
M 381 2697
L 744 2697
L 744 2291
L 381 2291
L 381 2697
z
" transform="scale(0.015625)"/>
     </defs>
     <use xlink:href="#DejaVuSans-75"/>
     <use xlink:href="#DejaVuSans-2c7c" transform="translate(63.378906 0)"/>
    </g>
   </g>
   <g id="text_19">
    <!-- i -->
    <g transform="translate(401.713125 223.95525) scale(0.12 -0.12)">
     <use xlink:href="#DejaVuSans-69"/>
    </g>
   </g>
   <g id="text_20">
    <!-- j -->
    <g transform="translate(613.753125 223.95525) scale(0.12 -0.12)">
     <use xlink:href="#DejaVuSans-6a"/>
    </g>
   </g>
   <g id="text_21">
    <!-- $m_i+1$ -->
    <g transform="translate(457.83 144.332075) scale(0.1 -0.1)">
     <defs>
      <path id="DejaVuSans-2b" d="M 2944 4013
L 2944 2272
L 4684 2272
L 4684 1741
L 2944 1741
L 2944 0
L 2419 0
L 2419 1741
L 678 1741
L 678 2272
L 2419 2272
L 2419 4013
L 2944 4013
z
" transform="scale(0.015625)"/>
      <path id="DejaVuSans-31" d="M 794 531
L 1825 531
L 1825 4091
L 703 3866
L 703 4441
L 1819 4666
L 2450 4666
L 2450 531
L 3481 531
L 3481 0
L 794 0
L 794 531
z
" transform="scale(0.015625)"/>
     </defs>
     <use xlink:href="#DejaVuSans-Oblique-6d" transform="translate(0 0.09375)"/>
     <use xlink:href="#DejaVuSans-Oblique-69" transform="translate(97.412109 -16.3125) scale(0.7)"/>
     <use xlink:href="#DejaVuSans-2b" transform="translate(139.077148 0.09375)"/>
     <use xlink:href="#DejaVuSans-31" transform="translate(242.348633 0.09375)"/>
    </g>
   </g>
   <g id="text_22">
    <!-- $\tau_{\mathrm{gen}}$ -->
    <g transform="translate(408.696 192.064312) scale(0.1 -0.1)">
     <use xlink:href="#DejaVuSans-Oblique-3c4" transform="translate(0 0.3125)"/>
     <use xlink:href="#DejaVuSans-67" transform="translate(60.205078 -16.09375) scale(0.7)"/>
     <use xlink:href="#DejaVuSans-65" transform="translate(104.638672 -16.09375) scale(0.7)"/>
     <use xlink:href="#DejaVuSans-6e" transform="translate(147.705078 -16.09375) scale(0.7)"/>
    </g>
   </g>
   <g id="text_23">
    <!-- $m_j+1$ -->
    <g transform="translate(530.37 143.6727) scale(0.1 -0.1)">
     <use xlink:href="#DejaVuSans-Oblique-6d" transform="translate(0 0.09375)"/>
     <use xlink:href="#DejaVuSans-Oblique-6a" transform="translate(97.412109 -16.3125) scale(0.7)"/>
     <use xlink:href="#DejaVuSans-2b" transform="translate(139.077148 0.09375)"/>
     <use xlink:href="#DejaVuSans-31" transform="translate(242.348633 0.09375)"/>
    </g>
   </g>
   <g id="text_24">
    <!-- $\tau_{\mathrm{gen}}$ -->
    <g transform="translate(590.604 192.064312) scale(0.1 -0.1)">
     <use xlink:href="#DejaVuSans-Oblique-3c4" transform="translate(0 0.3125)"/>
     <use xlink:href="#DejaVuSans-67" transform="translate(60.205078 -16.09375) scale(0.7)"/>
     <use xlink:href="#DejaVuSans-65" transform="translate(104.638672 -16.09375) scale(0.7)"/>
     <use xlink:href="#DejaVuSans-6e" transform="translate(147.705078 -16.09375) scale(0.7)"/>
    </g>
   </g>
   <g id="text_25">
    <!-- Special case: $(m_i,m_j)=(0,0)$ gives co-primary infection -->
    <g transform="translate(356.885 259.452) scale(0.11 -0.11)">
     <defs>
      <path id="DejaVuSans-2d" d="M 313 2009
L 1997 2009
L 1997 1497
L 313 1497
L 313 2009
z
" transform="scale(0.015625)"/>
      <path id="DejaVuSans-79" d="M 2059 -325
Q 1816 -950 1584 -1140
Q 1353 -1331 966 -1331
L 506 -1331
L 506 -850
L 844 -850
Q 1081 -850 1212 -737
Q 1344 -625 1503 -206
L 1606 56
L 191 3500
L 800 3500
L 1894 763
L 2988 3500
L 3597 3500
L 2059 -325
z
" transform="scale(0.015625)"/>
     </defs>
     <use xlink:href="#DejaVuSans-53" transform="translate(0 0.015625)"/>
     <use xlink:href="#DejaVuSans-70" transform="translate(63.476562 0.015625)"/>
     <use xlink:href="#DejaVuSans-65" transform="translate(126.953125 0.015625)"/>
     <use xlink:href="#DejaVuSans-63" transform="translate(188.476562 0.015625)"/>
     <use xlink:href="#DejaVuSans-69" transform="translate(243.457031 0.015625)"/>
     <use xlink:href="#DejaVuSans-61" transform="translate(271.240234 0.015625)"/>
     <use xlink:href="#DejaVuSans-6c" transform="translate(332.519531 0.015625)"/>
     <use xlink:href="#DejaVuSans-20" transform="translate(360.302734 0.015625)"/>
     <use xlink:href="#DejaVuSans-63" transform="translate(392.089844 0.015625)"/>
     <use xlink:href="#DejaVuSans-61" transform="translate(447.070312 0.015625)"/>
     <use xlink:href="#DejaVuSans-73" transform="translate(508.349609 0.015625)"/>
     <use xlink:href="#DejaVuSans-65" transform="translate(560.449219 0.015625)"/>
     <use xlink:href="#DejaVuSans-3a" transform="translate(621.972656 0.015625)"/>
     <use xlink:href="#DejaVuSans-20" transform="translate(655.664062 0.015625)"/>
     <use xlink:href="#DejaVuSans-28" transform="translate(687.451172 0.015625)"/>
     <use xlink:href="#DejaVuSans-Oblique-6d" transform="translate(726.464844 0.015625)"/>
     <use xlink:href="#DejaVuSans-Oblique-69" transform="translate(823.876953 -16.390625) scale(0.7)"/>
     <use xlink:href="#DejaVuSans-2c" transform="translate(846.05957 0.015625)"/>
     <use xlink:href="#DejaVuSans-Oblique-6d" transform="translate(897.329102 0.015625)"/>
     <use xlink:href="#DejaVuSans-Oblique-6a" transform="translate(994.741211 -16.390625) scale(0.7)"/>
     <use xlink:href="#DejaVuSans-29" transform="translate(1016.923828 0.015625)"/>
     <use xlink:href="#DejaVuSans-3d" transform="translate(1075.419922 0.015625)"/>
     <use xlink:href="#DejaVuSans-28" transform="translate(1178.691406 0.015625)"/>
     <use xlink:href="#DejaVuSans-30" transform="translate(1217.705078 0.015625)"/>
     <use xlink:href="#DejaVuSans-2c" transform="translate(1281.328125 0.015625)"/>
     <use xlink:href="#DejaVuSans-30" transform="translate(1332.597656 0.015625)"/>
     <use xlink:href="#DejaVuSans-29" transform="translate(1396.220703 0.015625)"/>
     <use xlink:href="#DejaVuSans-20" transform="translate(1435.234375 0.015625)"/>
     <use xlink:href="#DejaVuSans-67" transform="translate(1467.021484 0.015625)"/>
     <use xlink:href="#DejaVuSans-69" transform="translate(1530.498047 0.015625)"/>
     <use xlink:href="#DejaVuSans-76" transform="translate(1558.28125 0.015625)"/>
     <use xlink:href="#DejaVuSans-65" transform="translate(1617.460938 0.015625)"/>
     <use xlink:href="#DejaVuSans-73" transform="translate(1678.984375 0.015625)"/>
     <use xlink:href="#DejaVuSans-20" transform="translate(1731.083984 0.015625)"/>
     <use xlink:href="#DejaVuSans-63" transform="translate(1762.871094 0.015625)"/>
     <use xlink:href="#DejaVuSans-6f" transform="translate(1817.851562 0.015625)"/>
     <use xlink:href="#DejaVuSans-2d" transform="translate(1879.033203 0.015625)"/>
     <use xlink:href="#DejaVuSans-70" transform="translate(1915.117188 0.015625)"/>
     <use xlink:href="#DejaVuSans-72" transform="translate(1978.59375 0.015625)"/>
     <use xlink:href="#DejaVuSans-69" transform="translate(2019.707031 0.015625)"/>
     <use xlink:href="#DejaVuSans-6d" transform="translate(2047.490234 0.015625)"/>
     <use xlink:href="#DejaVuSans-61" transform="translate(2144.902344 0.015625)"/>
     <use xlink:href="#DejaVuSans-72" transform="translate(2206.181641 0.015625)"/>
     <use xlink:href="#DejaVuSans-79" transform="translate(2247.294922 0.015625)"/>
     <use xlink:href="#DejaVuSans-20" transform="translate(2306.474609 0.015625)"/>
     <use xlink:href="#DejaVuSans-69" transform="translate(2338.261719 0.015625)"/>
     <use xlink:href="#DejaVuSans-6e" transform="translate(2366.044922 0.015625)"/>
     <use xlink:href="#DejaVuSans-66" transform="translate(2429.423828 0.015625)"/>
     <use xlink:href="#DejaVuSans-65" transform="translate(2464.628906 0.015625)"/>
     <use xlink:href="#DejaVuSans-63" transform="translate(2526.152344 0.015625)"/>
     <use xlink:href="#DejaVuSans-74" transform="translate(2581.132812 0.015625)"/>
     <use xlink:href="#DejaVuSans-69" transform="translate(2620.341797 0.015625)"/>
     <use xlink:href="#DejaVuSans-6f" transform="translate(2648.125 0.015625)"/>
     <use xlink:href="#DejaVuSans-6e" transform="translate(2709.306641 0.015625)"/>
    </g>
   </g>
   <g id="text_26">
    <!-- a -->
    <g transform="translate(461.083125 303.99675) scale(0.12 -0.12)">
     <use xlink:href="#DejaVuSans-61"/>
    </g>
   </g>
   <g id="text_27">
    <!-- i -->
    <g transform="translate(412.873125 342.80475) scale(0.12 -0.12)">
     <use xlink:href="#DejaVuSans-69"/>
    </g>
   </g>
   <g id="text_28">
    <!-- j -->
    <g transform="translate(513.313125 342.80475) scale(0.12 -0.12)">
     <use xlink:href="#DejaVuSans-6a"/>
    </g>
   </g>
   <g id="text_29">
    <!-- sampled case -->
    <g transform="translate(65.79 361.656875) scale(0.1 -0.1)">
     <use xlink:href="#DejaVuSans-73"/>
     <use xlink:href="#DejaVuSans-61" transform="translate(52.099609 0)"/>
     <use xlink:href="#DejaVuSans-6d" transform="translate(113.378906 0)"/>
     <use xlink:href="#DejaVuSans-70" transform="translate(210.791016 0)"/>
     <use xlink:href="#DejaVuSans-6c" transform="translate(274.267578 0)"/>
     <use xlink:href="#DejaVuSans-65" transform="translate(302.050781 0)"/>
     <use xlink:href="#DejaVuSans-64" transform="translate(363.574219 0)"/>
     <use xlink:href="#DejaVuSans-20" transform="translate(427.050781 0)"/>
     <use xlink:href="#DejaVuSans-63" transform="translate(458.837891 0)"/>
     <use xlink:href="#DejaVuSans-61" transform="translate(513.818359 0)"/>
     <use xlink:href="#DejaVuSans-73" transform="translate(575.097656 0)"/>
     <use xlink:href="#DejaVuSans-65" transform="translate(627.197266 0)"/>
    </g>
   </g>
   <g id="text_30">
    <!-- unsampled latent case -->
    <g transform="translate(169.02 361.656875) scale(0.1 -0.1)">
     <use xlink:href="#DejaVuSans-75"/>
     <use xlink:href="#DejaVuSans-6e" transform="translate(63.378906 0)"/>
     <use xlink:href="#DejaVuSans-73" transform="translate(126.757812 0)"/>
     <use xlink:href="#DejaVuSans-61" transform="translate(178.857422 0)"/>
     <use xlink:href="#DejaVuSans-6d" transform="translate(240.136719 0)"/>
     <use xlink:href="#DejaVuSans-70" transform="translate(337.548828 0)"/>
     <use xlink:href="#DejaVuSans-6c" transform="translate(401.025391 0)"/>
     <use xlink:href="#DejaVuSans-65" transform="translate(428.808594 0)"/>
     <use xlink:href="#DejaVuSans-64" transform="translate(490.332031 0)"/>
     <use xlink:href="#DejaVuSans-20" transform="translate(553.808594 0)"/>
     <use xlink:href="#DejaVuSans-6c" transform="translate(585.595703 0)"/>
     <use xlink:href="#DejaVuSans-61" transform="translate(613.378906 0)"/>
     <use xlink:href="#DejaVuSans-74" transform="translate(674.658203 0)"/>
     <use xlink:href="#DejaVuSans-65" transform="translate(713.867188 0)"/>
     <use xlink:href="#DejaVuSans-6e" transform="translate(775.390625 0)"/>
     <use xlink:href="#DejaVuSans-74" transform="translate(838.769531 0)"/>
     <use xlink:href="#DejaVuSans-20" transform="translate(877.978516 0)"/>
     <use xlink:href="#DejaVuSans-63" transform="translate(909.765625 0)"/>
     <use xlink:href="#DejaVuSans-61" transform="translate(964.746094 0)"/>
     <use xlink:href="#DejaVuSans-73" transform="translate(1026.025391 0)"/>
     <use xlink:href="#DejaVuSans-65" transform="translate(1078.125 0)"/>
    </g>
   </g>
   <g id="text_31">
    <!-- Observed pair: sampled cases $i$ and $j$. Latent histories enumerate hidden intermediates or a shared unsampled ancestor. -->
    <g transform="translate(8.37 378.3015) scale(0.11 -0.11)">
     <defs>
      <path id="DejaVuSans-4f" d="M 2522 4238
Q 1834 4238 1429 3725
Q 1025 3213 1025 2328
Q 1025 1447 1429 934
Q 1834 422 2522 422
Q 3209 422 3611 934
Q 4013 1447 4013 2328
Q 4013 3213 3611 3725
Q 3209 4238 2522 4238
z
M 2522 4750
Q 3503 4750 4090 4092
Q 4678 3434 4678 2328
Q 4678 1225 4090 567
Q 3503 -91 2522 -91
Q 1538 -91 948 565
Q 359 1222 359 2328
Q 359 3434 948 4092
Q 1538 4750 2522 4750
z
" transform="scale(0.015625)"/>
      <path id="DejaVuSans-62" d="M 3116 1747
Q 3116 2381 2855 2742
Q 2594 3103 2138 3103
Q 1681 3103 1420 2742
Q 1159 2381 1159 1747
Q 1159 1113 1420 752
Q 1681 391 2138 391
Q 2594 391 2855 752
Q 3116 1113 3116 1747
z
M 1159 2969
Q 1341 3281 1617 3432
Q 1894 3584 2278 3584
Q 2916 3584 3314 3078
Q 3713 2572 3713 1747
Q 3713 922 3314 415
Q 2916 -91 2278 -91
Q 1894 -91 1617 61
Q 1341 213 1159 525
L 1159 0
L 581 0
L 581 4863
L 1159 4863
L 1159 2969
z
" transform="scale(0.015625)"/>
      <path id="DejaVuSans-2e" d="M 684 794
L 1344 794
L 1344 0
L 684 0
L 684 794
z
" transform="scale(0.015625)"/>
      <path id="DejaVuSans-4c" d="M 628 4666
L 1259 4666
L 1259 531
L 3531 531
L 3531 0
L 628 0
L 628 4666
z
" transform="scale(0.015625)"/>
     </defs>
     <use xlink:href="#DejaVuSans-4f" transform="translate(0 0.015625)"/>
     <use xlink:href="#DejaVuSans-62" transform="translate(78.710938 0.015625)"/>
     <use xlink:href="#DejaVuSans-73" transform="translate(142.1875 0.015625)"/>
     <use xlink:href="#DejaVuSans-65" transform="translate(194.287109 0.015625)"/>
     <use xlink:href="#DejaVuSans-72" transform="translate(255.810547 0.015625)"/>
     <use xlink:href="#DejaVuSans-76" transform="translate(296.923828 0.015625)"/>
     <use xlink:href="#DejaVuSans-65" transform="translate(356.103516 0.015625)"/>
     <use xlink:href="#DejaVuSans-64" transform="translate(417.626953 0.015625)"/>
     <use xlink:href="#DejaVuSans-20" transform="translate(481.103516 0.015625)"/>
     <use xlink:href="#DejaVuSans-70" transform="translate(512.890625 0.015625)"/>
     <use xlink:href="#DejaVuSans-61" transform="translate(576.367188 0.015625)"/>
     <use xlink:href="#DejaVuSans-69" transform="translate(637.646484 0.015625)"/>
     <use xlink:href="#DejaVuSans-72" transform="translate(665.429688 0.015625)"/>
     <use xlink:href="#DejaVuSans-3a" transform="translate(706.542969 0.015625)"/>
     <use xlink:href="#DejaVuSans-20" transform="translate(740.234375 0.015625)"/>
     <use xlink:href="#DejaVuSans-73" transform="translate(772.021484 0.015625)"/>
     <use xlink:href="#DejaVuSans-61" transform="translate(824.121094 0.015625)"/>
     <use xlink:href="#DejaVuSans-6d" transform="translate(885.400391 0.015625)"/>
     <use xlink:href="#DejaVuSans-70" transform="translate(982.8125 0.015625)"/>
     <use xlink:href="#DejaVuSans-6c" transform="translate(1046.289062 0.015625)"/>
     <use xlink:href="#DejaVuSans-65" transform="translate(1074.072266 0.015625)"/>
     <use xlink:href="#DejaVuSans-64" transform="translate(1135.595703 0.015625)"/>
     <use xlink:href="#DejaVuSans-20" transform="translate(1199.072266 0.015625)"/>
     <use xlink:href="#DejaVuSans-63" transform="translate(1230.859375 0.015625)"/>
     <use xlink:href="#DejaVuSans-61" transform="translate(1285.839844 0.015625)"/>
     <use xlink:href="#DejaVuSans-73" transform="translate(1347.119141 0.015625)"/>
     <use xlink:href="#DejaVuSans-65" transform="translate(1399.21875 0.015625)"/>
     <use xlink:href="#DejaVuSans-73" transform="translate(1460.742188 0.015625)"/>
     <use xlink:href="#DejaVuSans-20" transform="translate(1512.841797 0.015625)"/>
     <use xlink:href="#DejaVuSans-Oblique-69" transform="translate(1544.628906 0.015625)"/>
     <use xlink:href="#DejaVuSans-20" transform="translate(1572.412109 0.015625)"/>
     <use xlink:href="#DejaVuSans-61" transform="translate(1604.199219 0.015625)"/>
     <use xlink:href="#DejaVuSans-6e" transform="translate(1665.478516 0.015625)"/>
     <use xlink:href="#DejaVuSans-64" transform="translate(1728.857422 0.015625)"/>
     <use xlink:href="#DejaVuSans-20" transform="translate(1792.333984 0.015625)"/>
     <use xlink:href="#DejaVuSans-Oblique-6a" transform="translate(1824.121094 0.015625)"/>
     <use xlink:href="#DejaVuSans-2e" transform="translate(1851.904297 0.015625)"/>
     <use xlink:href="#DejaVuSans-20" transform="translate(1883.691406 0.015625)"/>
     <use xlink:href="#DejaVuSans-4c" transform="translate(1915.478516 0.015625)"/>
     <use xlink:href="#DejaVuSans-61" transform="translate(1971.191406 0.015625)"/>
     <use xlink:href="#DejaVuSans-74" transform="translate(2032.470703 0.015625)"/>
     <use xlink:href="#DejaVuSans-65" transform="translate(2071.679688 0.015625)"/>
     <use xlink:href="#DejaVuSans-6e" transform="translate(2133.203125 0.015625)"/>
     <use xlink:href="#DejaVuSans-74" transform="translate(2196.582031 0.015625)"/>
     <use xlink:href="#DejaVuSans-20" transform="translate(2235.791016 0.015625)"/>
     <use xlink:href="#DejaVuSans-68" transform="translate(2267.578125 0.015625)"/>
     <use xlink:href="#DejaVuSans-69" transform="translate(2330.957031 0.015625)"/>
     <use xlink:href="#DejaVuSans-73" transform="translate(2358.740234 0.015625)"/>
     <use xlink:href="#DejaVuSans-74" transform="translate(2410.839844 0.015625)"/>
     <use xlink:href="#DejaVuSans-6f" transform="translate(2450.048828 0.015625)"/>
     <use xlink:href="#DejaVuSans-72" transform="translate(2511.230469 0.015625)"/>
     <use xlink:href="#DejaVuSans-69" transform="translate(2552.34375 0.015625)"/>
     <use xlink:href="#DejaVuSans-65" transform="translate(2580.126953 0.015625)"/>
     <use xlink:href="#DejaVuSans-73" transform="translate(2641.650391 0.015625)"/>
     <use xlink:href="#DejaVuSans-20" transform="translate(2693.75 0.015625)"/>
     <use xlink:href="#DejaVuSans-65" transform="translate(2725.537109 0.015625)"/>
     <use xlink:href="#DejaVuSans-6e" transform="translate(2787.060547 0.015625)"/>
     <use xlink:href="#DejaVuSans-75" transform="translate(2850.439453 0.015625)"/>
     <use xlink:href="#DejaVuSans-6d" transform="translate(2913.818359 0.015625)"/>
     <use xlink:href="#DejaVuSans-65" transform="translate(3011.230469 0.015625)"/>
     <use xlink:href="#DejaVuSans-72" transform="translate(3072.753906 0.015625)"/>
     <use xlink:href="#DejaVuSans-61" transform="translate(3113.867188 0.015625)"/>
     <use xlink:href="#DejaVuSans-74" transform="translate(3175.146484 0.015625)"/>
     <use xlink:href="#DejaVuSans-65" transform="translate(3214.355469 0.015625)"/>
     <use xlink:href="#DejaVuSans-20" transform="translate(3275.878906 0.015625)"/>
     <use xlink:href="#DejaVuSans-68" transform="translate(3307.666016 0.015625)"/>
     <use xlink:href="#DejaVuSans-69" transform="translate(3371.044922 0.015625)"/>
     <use xlink:href="#DejaVuSans-64" transform="translate(3398.828125 0.015625)"/>
     <use xlink:href="#DejaVuSans-64" transform="translate(3462.304688 0.015625)"/>
     <use xlink:href="#DejaVuSans-65" transform="translate(3525.78125 0.015625)"/>
     <use xlink:href="#DejaVuSans-6e" transform="translate(3587.304688 0.015625)"/>
     <use xlink:href="#DejaVuSans-20" transform="translate(3650.683594 0.015625)"/>
     <use xlink:href="#DejaVuSans-69" transform="translate(3682.470703 0.015625)"/>
     <use xlink:href="#DejaVuSans-6e" transform="translate(3710.253906 0.015625)"/>
     <use xlink:href="#DejaVuSans-74" transform="translate(3773.632812 0.015625)"/>
     <use xlink:href="#DejaVuSans-65" transform="translate(3812.841797 0.015625)"/>
     <use xlink:href="#DejaVuSans-72" transform="translate(3874.365234 0.015625)"/>
     <use xlink:href="#DejaVuSans-6d" transform="translate(3915.478516 0.015625)"/>
     <use xlink:href="#DejaVuSans-65" transform="translate(4012.890625 0.015625)"/>
     <use xlink:href="#DejaVuSans-64" transform="translate(4074.414062 0.015625)"/>
     <use xlink:href="#DejaVuSans-69" transform="translate(4137.890625 0.015625)"/>
     <use xlink:href="#DejaVuSans-61" transform="translate(4165.673828 0.015625)"/>
     <use xlink:href="#DejaVuSans-74" transform="translate(4226.953125 0.015625)"/>
     <use xlink:href="#DejaVuSans-65" transform="translate(4266.162109 0.015625)"/>
     <use xlink:href="#DejaVuSans-73" transform="translate(4327.685547 0.015625)"/>
     <use xlink:href="#DejaVuSans-20" transform="translate(4379.785156 0.015625)"/>
     <use xlink:href="#DejaVuSans-6f" transform="translate(4411.572266 0.015625)"/>
     <use xlink:href="#DejaVuSans-72" transform="translate(4472.753906 0.015625)"/>
     <use xlink:href="#DejaVuSans-20" transform="translate(4513.867188 0.015625)"/>
     <use xlink:href="#DejaVuSans-61" transform="translate(4545.654297 0.015625)"/>
     <use xlink:href="#DejaVuSans-20" transform="translate(4606.933594 0.015625)"/>
     <use xlink:href="#DejaVuSans-73" transform="translate(4638.720703 0.015625)"/>
     <use xlink:href="#DejaVuSans-68" transform="translate(4690.820312 0.015625)"/>
     <use xlink:href="#DejaVuSans-61" transform="translate(4754.199219 0.015625)"/>
     <use xlink:href="#DejaVuSans-72" transform="translate(4815.478516 0.015625)"/>
     <use xlink:href="#DejaVuSans-65" transform="translate(4856.591797 0.015625)"/>
     <use xlink:href="#DejaVuSans-64" transform="translate(4918.115234 0.015625)"/>
     <use xlink:href="#DejaVuSans-20" transform="translate(4981.591797 0.015625)"/>
     <use xlink:href="#DejaVuSans-75" transform="translate(5013.378906 0.015625)"/>
     <use xlink:href="#DejaVuSans-6e" transform="translate(5076.757812 0.015625)"/>
     <use xlink:href="#DejaVuSans-73" transform="translate(5140.136719 0.015625)"/>
     <use xlink:href="#DejaVuSans-61" transform="translate(5192.236328 0.015625)"/>
     <use xlink:href="#DejaVuSans-6d" transform="translate(5253.515625 0.015625)"/>
     <use xlink:href="#DejaVuSans-70" transform="translate(5350.927734 0.015625)"/>
     <use xlink:href="#DejaVuSans-6c" transform="translate(5414.404297 0.015625)"/>
     <use xlink:href="#DejaVuSans-65" transform="translate(5442.1875 0.015625)"/>
     <use xlink:href="#DejaVuSans-64" transform="translate(5503.710938 0.015625)"/>
     <use xlink:href="#DejaVuSans-20" transform="translate(5567.1875 0.015625)"/>
     <use xlink:href="#DejaVuSans-61" transform="translate(5598.974609 0.015625)"/>
     <use xlink:href="#DejaVuSans-6e" transform="translate(5660.253906 0.015625)"/>
     <use xlink:href="#DejaVuSans-63" transform="translate(5723.632812 0.015625)"/>
     <use xlink:href="#DejaVuSans-65" transform="translate(5778.613281 0.015625)"/>
     <use xlink:href="#DejaVuSans-73" transform="translate(5840.136719 0.015625)"/>
     <use xlink:href="#DejaVuSans-74" transform="translate(5892.236328 0.015625)"/>
     <use xlink:href="#DejaVuSans-6f" transform="translate(5931.445312 0.015625)"/>
     <use xlink:href="#DejaVuSans-72" transform="translate(5992.626953 0.015625)"/>
     <use xlink:href="#DejaVuSans-2e" transform="translate(6033.740234 0.015625)"/>
    </g>
   </g>
  </g>
 </g>
 <defs>
  <clipPath id="p99c9d677af">
   <rect x="7.2" y="7.2" width="669.6" height="388.08"/>
  </clipPath>
 </defs>
</svg>
